<?xml version="1.0" encoding="UTF-8" standalone="no"?><svg xmlns="http://www.w3.org/2000/svg" xmlns:xlink="http://www.w3.org/1999/xlink" contentScriptType="application/ecmascript" contentStyleType="text/css" height="1170px" preserveAspectRatio="none" style="width:3516px;height:1170px;" version="1.1" viewBox="0 0 3516 1170" width="3516px" zoomAndPan="magnify"><defs><filter height="300%" id="fpvxitv" width="300%" x="-1" y="-1"><feGaussianBlur result="blurOut" stdDeviation="2.0"/><feColorMatrix in="blurOut" result="blurOut2" type="matrix" values="0 0 0 0 0 0 0 0 0 0 0 0 0 0 0 0 0 0 .4 0"/><feOffset dx="4.0" dy="4.0" in="blurOut2" result="blurOut3"/><feBlend in="SourceGraphic" in2="blurOut3" mode="normal"/></filter></defs><g><!--class Game--><rect fill="#FEFECE" filter="url(#fpvxitv)" height="137.6328" style="stroke: #A80036; stroke-width: 1.5;" width="95" x="802.75" y="8"/><ellipse cx="829.9" cy="24" fill="#ADD1B2" rx="11" ry="11" style="stroke: #A80036; stroke-width: 1.0;"/><path d="M832.8688,29.6406 Q832.2906,29.9375 831.65,30.0859 Q831.0094,30.2344 830.3063,30.2344 Q827.8063,30.2344 826.4859,28.5859 Q825.1656,26.9375 825.1656,23.8125 Q825.1656,20.6875 826.4859,19.0313 Q827.8063,17.375 830.3063,17.375 Q831.0094,17.375 831.6578,17.5313 Q832.3063,17.6875 832.8688,17.9844 L832.8688,20.7031 Q832.2438,20.125 831.65,19.8516 Q831.0563,19.5781 830.4313,19.5781 Q829.0875,19.5781 828.4,20.6484 Q827.7125,21.7188 827.7125,23.8125 Q827.7125,25.9063 828.4,26.9766 Q829.0875,28.0469 830.4313,28.0469 Q831.0563,28.0469 831.65,27.7734 Q832.2438,27.5 832.8688,26.9219 L832.8688,29.6406 Z "/><text fill="#000000" font-family="sans-serif" font-size="12" lengthAdjust="spacingAndGlyphs" textLength="36" x="846.6" y="28.1543">Game</text><line style="stroke: #A80036; stroke-width: 1.5;" x1="803.75" x2="896.75" y1="40" y2="40"/><text fill="#000000" font-family="sans-serif" font-size="11" lengthAdjust="spacingAndGlyphs" textLength="23" x="808.75" y="54.2104">turn</text><text fill="#000000" font-family="sans-serif" font-size="11" lengthAdjust="spacingAndGlyphs" textLength="74" x="808.75" y="67.0151">active_player</text><text fill="#000000" font-family="sans-serif" font-size="11" lengthAdjust="spacingAndGlyphs" textLength="68" x="808.75" y="79.8198">event_proxy</text><line style="stroke: #A80036; stroke-width: 1.5;" x1="803.75" x2="896.75" y1="86.4141" y2="86.4141"/><text fill="#000000" font-family="sans-serif" font-size="11" lengthAdjust="spacingAndGlyphs" textLength="71" x="808.75" y="100.6245">draw_state()</text><text fill="#000000" font-family="sans-serif" font-size="11" lengthAdjust="spacingAndGlyphs" textLength="73" x="808.75" y="113.4292">start_game()</text><text fill="#000000" font-family="sans-serif" font-size="11" lengthAdjust="spacingAndGlyphs" textLength="70" x="808.75" y="126.2339">set_winner()</text><text fill="#000000" font-family="sans-serif" font-size="11" lengthAdjust="spacingAndGlyphs" textLength="67" x="808.75" y="139.0386">end_game()</text><!--class Player--><rect fill="#FEFECE" filter="url(#fpvxitv)" height="150.4375" style="stroke: #A80036; stroke-width: 1.5;" width="150" x="436.5" y="206"/><ellipse cx="488.25" cy="222" fill="#ADD1B2" rx="11" ry="11" style="stroke: #A80036; stroke-width: 1.0;"/><path d="M491.2188,227.6406 Q490.6406,227.9375 490,228.0859 Q489.3594,228.2344 488.6563,228.2344 Q486.1563,228.2344 484.8359,226.5859 Q483.5156,224.9375 483.5156,221.8125 Q483.5156,218.6875 484.8359,217.0313 Q486.1563,215.375 488.6563,215.375 Q489.3594,215.375 490.0078,215.5313 Q490.6563,215.6875 491.2188,215.9844 L491.2188,218.7031 Q490.5938,218.125 490,217.8516 Q489.4063,217.5781 488.7813,217.5781 Q487.4375,217.5781 486.75,218.6484 Q486.0625,219.7188 486.0625,221.8125 Q486.0625,223.9063 486.75,224.9766 Q487.4375,226.0469 488.7813,226.0469 Q489.4063,226.0469 490,225.7734 Q490.5938,225.5 491.2188,224.9219 L491.2188,227.6406 Z "/><text fill="#000000" font-family="sans-serif" font-size="12" lengthAdjust="spacingAndGlyphs" textLength="38" x="508.75" y="226.1543">Player</text><line style="stroke: #A80036; stroke-width: 1.5;" x1="437.5" x2="585.5" y1="238" y2="238"/><text fill="#000000" font-family="sans-serif" font-size="11" lengthAdjust="spacingAndGlyphs" textLength="56" x="442.5" y="252.2104">battlefield</text><text fill="#000000" font-family="sans-serif" font-size="11" lengthAdjust="spacingAndGlyphs" textLength="26" x="442.5" y="265.0151">deck</text><text fill="#000000" font-family="sans-serif" font-size="11" lengthAdjust="spacingAndGlyphs" textLength="28" x="442.5" y="277.8198">hand</text><text fill="#000000" font-family="sans-serif" font-size="11" lengthAdjust="spacingAndGlyphs" textLength="26" x="442.5" y="290.6245">hero</text><text fill="#000000" font-family="sans-serif" font-size="11" lengthAdjust="spacingAndGlyphs" textLength="62" x="442.5" y="303.4292">mana_pool</text><line style="stroke: #A80036; stroke-width: 1.5;" x1="437.5" x2="585.5" y1="310.0234" y2="310.0234"/><text fill="#000000" font-family="sans-serif" font-size="11" lengthAdjust="spacingAndGlyphs" textLength="56" x="442.5" y="324.2339">mulligan()</text><text fill="#000000" font-family="sans-serif" font-size="11" lengthAdjust="spacingAndGlyphs" textLength="65" x="442.5" y="337.0386">pass_turn()</text><text fill="#000000" font-family="sans-serif" font-size="11" lengthAdjust="spacingAndGlyphs" textLength="138" x="442.5" y="349.8433">[Action] get_all_actions()</text><!--class EventProxy--><rect fill="#FEFECE" filter="url(#fpvxitv)" height="112.0234" style="stroke: #A80036; stroke-width: 1.5;" width="387" x="945.75" y="225"/><ellipse cx="1101" cy="241" fill="#ADD1B2" rx="11" ry="11" style="stroke: #A80036; stroke-width: 1.0;"/><path d="M1103.9688,246.6406 Q1103.3906,246.9375 1102.75,247.0859 Q1102.1094,247.2344 1101.4063,247.2344 Q1098.9063,247.2344 1097.5859,245.5859 Q1096.2656,243.9375 1096.2656,240.8125 Q1096.2656,237.6875 1097.5859,236.0313 Q1098.9063,234.375 1101.4063,234.375 Q1102.1094,234.375 1102.7578,234.5313 Q1103.4063,234.6875 1103.9688,234.9844 L1103.9688,237.7031 Q1103.3438,237.125 1102.75,236.8516 Q1102.1563,236.5781 1101.5313,236.5781 Q1100.1875,236.5781 1099.5,237.6484 Q1098.8125,238.7188 1098.8125,240.8125 Q1098.8125,242.9063 1099.5,243.9766 Q1100.1875,245.0469 1101.5313,245.0469 Q1102.1563,245.0469 1102.75,244.7734 Q1103.3438,244.5 1103.9688,243.9219 L1103.9688,246.6406 Z "/><text fill="#000000" font-family="sans-serif" font-size="12" lengthAdjust="spacingAndGlyphs" textLength="68" x="1121.5" y="245.1543">EventProxy</text><line style="stroke: #A80036; stroke-width: 1.5;" x1="946.75" x2="1331.75" y1="257" y2="257"/><text fill="#000000" font-family="sans-serif" font-size="11" lengthAdjust="spacingAndGlyphs" textLength="39" x="951.75" y="271.2104">history</text><text fill="#000000" font-family="sans-serif" font-size="11" lengthAdjust="spacingAndGlyphs" textLength="146" x="951.75" y="284.0151">[list or dict] subscriptions</text><line style="stroke: #A80036; stroke-width: 1.5;" x1="946.75" x2="1331.75" y1="290.6094" y2="290.6094"/><text fill="#000000" font-family="sans-serif" font-size="11" lengthAdjust="spacingAndGlyphs" textLength="375" x="951.75" y="304.8198">subscribe(source, event_type, dict parameter_filter, priority = 10)</text><text fill="#000000" font-family="sans-serif" font-size="11" lengthAdjust="spacingAndGlyphs" textLength="67" x="951.75" y="317.6245">send(event)</text><text fill="#000000" font-family="sans-serif" font-size="11" lengthAdjust="spacingAndGlyphs" textLength="102" x="951.75" y="330.4292">_broadcast(event)</text><!--class Subscription--><rect fill="#FEFECE" filter="url(#fpvxitv)" height="99.2188" style="stroke: #A80036; stroke-width: 1.5;" width="110" x="1084" y="448.5"/><ellipse cx="1099" cy="464.5" fill="#ADD1B2" rx="11" ry="11" style="stroke: #A80036; stroke-width: 1.0;"/><path d="M1101.9688,470.1406 Q1101.3906,470.4375 1100.75,470.5859 Q1100.1094,470.7344 1099.4063,470.7344 Q1096.9063,470.7344 1095.5859,469.0859 Q1094.2656,467.4375 1094.2656,464.3125 Q1094.2656,461.1875 1095.5859,459.5313 Q1096.9063,457.875 1099.4063,457.875 Q1100.1094,457.875 1100.7578,458.0313 Q1101.4063,458.1875 1101.9688,458.4844 L1101.9688,461.2031 Q1101.3438,460.625 1100.75,460.3516 Q1100.1563,460.0781 1099.5313,460.0781 Q1098.1875,460.0781 1097.5,461.1484 Q1096.8125,462.2188 1096.8125,464.3125 Q1096.8125,466.4063 1097.5,467.4766 Q1098.1875,468.5469 1099.5313,468.5469 Q1100.1563,468.5469 1100.75,468.2734 Q1101.3438,468 1101.9688,467.4219 L1101.9688,470.1406 Z "/><text fill="#000000" font-family="sans-serif" font-size="12" lengthAdjust="spacingAndGlyphs" textLength="78" x="1113" y="468.6543">Subscription</text><line style="stroke: #A80036; stroke-width: 1.5;" x1="1085" x2="1193" y1="480.5" y2="480.5"/><text fill="#000000" font-family="sans-serif" font-size="11" lengthAdjust="spacingAndGlyphs" textLength="39" x="1090" y="494.7104">source</text><text fill="#000000" font-family="sans-serif" font-size="11" lengthAdjust="spacingAndGlyphs" textLength="61" x="1090" y="507.5151">event_type</text><text fill="#000000" font-family="sans-serif" font-size="11" lengthAdjust="spacingAndGlyphs" textLength="92" x="1090" y="520.3198">parameter_filter</text><text fill="#000000" font-family="sans-serif" font-size="11" lengthAdjust="spacingAndGlyphs" textLength="40" x="1090" y="533.1245">priority</text><line style="stroke: #A80036; stroke-width: 1.5;" x1="1085" x2="1193" y1="539.7188" y2="539.7188"/><!--class Battlefield--><rect fill="#FEFECE" filter="url(#fpvxitv)" height="73.6094" style="stroke: #A80036; stroke-width: 1.5;" width="157" x="161.75" y="461"/><ellipse cx="204.65" cy="477" fill="#ADD1B2" rx="11" ry="11" style="stroke: #A80036; stroke-width: 1.0;"/><path d="M207.6188,482.6406 Q207.0406,482.9375 206.4,483.0859 Q205.7594,483.2344 205.0563,483.2344 Q202.5563,483.2344 201.2359,481.5859 Q199.9156,479.9375 199.9156,476.8125 Q199.9156,473.6875 201.2359,472.0313 Q202.5563,470.375 205.0563,470.375 Q205.7594,470.375 206.4078,470.5313 Q207.0563,470.6875 207.6188,470.9844 L207.6188,473.7031 Q206.9938,473.125 206.4,472.8516 Q205.8063,472.5781 205.1813,472.5781 Q203.8375,472.5781 203.15,473.6484 Q202.4625,474.7188 202.4625,476.8125 Q202.4625,478.9063 203.15,479.9766 Q203.8375,481.0469 205.1813,481.0469 Q205.8063,481.0469 206.4,480.7734 Q206.9938,480.5 207.6188,479.9219 L207.6188,482.6406 Z "/><text fill="#000000" font-family="sans-serif" font-size="12" lengthAdjust="spacingAndGlyphs" textLength="63" x="224.85" y="481.1543">Battlefield</text><line style="stroke: #A80036; stroke-width: 1.5;" x1="162.75" x2="317.75" y1="493" y2="493"/><text fill="#000000" font-family="sans-serif" font-size="11" lengthAdjust="spacingAndGlyphs" textLength="45" x="167.75" y="507.2104">minions</text><line style="stroke: #A80036; stroke-width: 1.5;" x1="162.75" x2="317.75" y1="513.8047" y2="513.8047"/><text fill="#000000" font-family="sans-serif" font-size="11" lengthAdjust="spacingAndGlyphs" textLength="145" x="167.75" y="528.0151">put(minion, left_of=None)</text><!--class Deck--><rect fill="#FEFECE" filter="url(#fpvxitv)" height="86.4141" style="stroke: #A80036; stroke-width: 1.5;" width="86" x="354" y="455"/><ellipse cx="379.35" cy="471" fill="#ADD1B2" rx="11" ry="11" style="stroke: #A80036; stroke-width: 1.0;"/><path d="M382.3188,476.6406 Q381.7406,476.9375 381.1,477.0859 Q380.4594,477.2344 379.7563,477.2344 Q377.2563,477.2344 375.9359,475.5859 Q374.6156,473.9375 374.6156,470.8125 Q374.6156,467.6875 375.9359,466.0313 Q377.2563,464.375 379.7563,464.375 Q380.4594,464.375 381.1078,464.5313 Q381.7563,464.6875 382.3188,464.9844 L382.3188,467.7031 Q381.6938,467.125 381.1,466.8516 Q380.5063,466.5781 379.8813,466.5781 Q378.5375,466.5781 377.85,467.6484 Q377.1625,468.7188 377.1625,470.8125 Q377.1625,472.9063 377.85,473.9766 Q378.5375,475.0469 379.8813,475.0469 Q380.5063,475.0469 381.1,474.7734 Q381.6938,474.5 382.3188,473.9219 L382.3188,476.6406 Z "/><text fill="#000000" font-family="sans-serif" font-size="12" lengthAdjust="spacingAndGlyphs" textLength="31" x="395.65" y="475.1543">Deck</text><line style="stroke: #A80036; stroke-width: 1.5;" x1="355" x2="439" y1="487" y2="487"/><text fill="#000000" font-family="sans-serif" font-size="11" lengthAdjust="spacingAndGlyphs" textLength="32" x="360" y="501.2104">cards</text><line style="stroke: #A80036; stroke-width: 1.5;" x1="355" x2="439" y1="507.8047" y2="507.8047"/><text fill="#000000" font-family="sans-serif" font-size="11" lengthAdjust="spacingAndGlyphs" textLength="50" x="360" y="522.0151">draw(int)</text><text fill="#000000" font-family="sans-serif" font-size="11" lengthAdjust="spacingAndGlyphs" textLength="74" x="360" y="534.8198">reveal_card()</text><!--class Hand--><rect fill="#FEFECE" filter="url(#fpvxitv)" height="86.4141" style="stroke: #A80036; stroke-width: 1.5;" width="72" x="475" y="455"/><ellipse cx="493.15" cy="471" fill="#ADD1B2" rx="11" ry="11" style="stroke: #A80036; stroke-width: 1.0;"/><path d="M496.1188,476.6406 Q495.5406,476.9375 494.9,477.0859 Q494.2594,477.2344 493.5563,477.2344 Q491.0563,477.2344 489.7359,475.5859 Q488.4156,473.9375 488.4156,470.8125 Q488.4156,467.6875 489.7359,466.0313 Q491.0563,464.375 493.5563,464.375 Q494.2594,464.375 494.9078,464.5313 Q495.5563,464.6875 496.1188,464.9844 L496.1188,467.7031 Q495.4938,467.125 494.9,466.8516 Q494.3063,466.5781 493.6813,466.5781 Q492.3375,466.5781 491.65,467.6484 Q490.9625,468.7188 490.9625,470.8125 Q490.9625,472.9063 491.65,473.9766 Q492.3375,475.0469 493.6813,475.0469 Q494.3063,475.0469 494.9,474.7734 Q495.4938,474.5 496.1188,473.9219 L496.1188,476.6406 Z "/><text fill="#000000" font-family="sans-serif" font-size="12" lengthAdjust="spacingAndGlyphs" textLength="33" x="507.85" y="475.1543">Hand</text><line style="stroke: #A80036; stroke-width: 1.5;" x1="476" x2="546" y1="487" y2="487"/><text fill="#000000" font-family="sans-serif" font-size="11" lengthAdjust="spacingAndGlyphs" textLength="32" x="481" y="501.2104">cards</text><line style="stroke: #A80036; stroke-width: 1.5;" x1="476" x2="546" y1="507.8047" y2="507.8047"/><text fill="#000000" font-family="sans-serif" font-size="11" lengthAdjust="spacingAndGlyphs" textLength="60" x="481" y="522.0151">add_card()</text><text fill="#000000" font-family="sans-serif" font-size="11" lengthAdjust="spacingAndGlyphs" textLength="50" x="481" y="534.8198">discard()</text><!--class Hero--><rect fill="#FEFECE" filter="url(#fpvxitv)" height="137.6328" style="stroke: #A80036; stroke-width: 1.5;" width="114" x="582" y="429"/><ellipse cx="620.4" cy="445" fill="#ADD1B2" rx="11" ry="11" style="stroke: #A80036; stroke-width: 1.0;"/><path d="M623.3688,450.6406 Q622.7906,450.9375 622.15,451.0859 Q621.5094,451.2344 620.8063,451.2344 Q618.3063,451.2344 616.9859,449.5859 Q615.6656,447.9375 615.6656,444.8125 Q615.6656,441.6875 616.9859,440.0313 Q618.3063,438.375 620.8063,438.375 Q621.5094,438.375 622.1578,438.5313 Q622.8063,438.6875 623.3688,438.9844 L623.3688,441.7031 Q622.7438,441.125 622.15,440.8516 Q621.5563,440.5781 620.9313,440.5781 Q619.5875,440.5781 618.9,441.6484 Q618.2125,442.7188 618.2125,444.8125 Q618.2125,446.9063 618.9,447.9766 Q619.5875,449.0469 620.9313,449.0469 Q621.5563,449.0469 622.15,448.7734 Q622.7438,448.5 623.3688,447.9219 L623.3688,450.6406 Z "/><text fill="#000000" font-family="sans-serif" font-size="12" lengthAdjust="spacingAndGlyphs" textLength="30" x="639.6" y="449.1543">Hero</text><line style="stroke: #A80036; stroke-width: 1.5;" x1="583" x2="695" y1="461" y2="461"/><text fill="#000000" font-family="sans-serif" font-size="11" lengthAdjust="spacingAndGlyphs" textLength="17" x="588" y="475.2104">life</text><text fill="#000000" font-family="sans-serif" font-size="11" lengthAdjust="spacingAndGlyphs" textLength="35" x="588" y="488.0151">power</text><text fill="#000000" font-family="sans-serif" font-size="11" lengthAdjust="spacingAndGlyphs" textLength="35" x="588" y="500.8198">armor</text><text fill="#000000" font-family="sans-serif" font-size="11" lengthAdjust="spacingAndGlyphs" textLength="44" x="588" y="513.6245">weapon</text><text fill="#000000" font-family="sans-serif" font-size="11" lengthAdjust="spacingAndGlyphs" textLength="67" x="588" y="526.4292">hero_power</text><text fill="#000000" font-family="sans-serif" font-size="11" lengthAdjust="spacingAndGlyphs" textLength="43" x="588" y="539.2339">secrets</text><line style="stroke: #A80036; stroke-width: 1.5;" x1="583" x2="695" y1="545.8281" y2="545.8281"/><text fill="#000000" font-family="sans-serif" font-size="11" lengthAdjust="spacingAndGlyphs" textLength="102" x="588" y="560.0386">use_hero_power()</text><!--class ManaPool--><rect fill="#FEFECE" filter="url(#fpvxitv)" height="150.4375" style="stroke: #A80036; stroke-width: 1.5;" width="120" x="6.5" y="423"/><ellipse cx="33.65" cy="439" fill="#ADD1B2" rx="11" ry="11" style="stroke: #A80036; stroke-width: 1.0;"/><path d="M36.6188,444.6406 Q36.0406,444.9375 35.4,445.0859 Q34.7594,445.2344 34.0563,445.2344 Q31.5563,445.2344 30.2359,443.5859 Q28.9156,441.9375 28.9156,438.8125 Q28.9156,435.6875 30.2359,434.0313 Q31.5563,432.375 34.0563,432.375 Q34.7594,432.375 35.4078,432.5313 Q36.0563,432.6875 36.6188,432.9844 L36.6188,435.7031 Q35.9938,435.125 35.4,434.8516 Q34.8063,434.5781 34.1813,434.5781 Q32.8375,434.5781 32.15,435.6484 Q31.4625,436.7188 31.4625,438.8125 Q31.4625,440.9063 32.15,441.9766 Q32.8375,443.0469 34.1813,443.0469 Q34.8063,443.0469 35.4,442.7734 Q35.9938,442.5 36.6188,441.9219 L36.6188,444.6406 Z "/><text fill="#000000" font-family="sans-serif" font-size="12" lengthAdjust="spacingAndGlyphs" textLength="61" x="50.35" y="443.1543">ManaPool</text><line style="stroke: #A80036; stroke-width: 1.5;" x1="7.5" x2="125.5" y1="455" y2="455"/><text fill="#000000" font-family="sans-serif" font-size="11" lengthAdjust="spacingAndGlyphs" textLength="79" x="12.5" y="469.2104">current_mana</text><text fill="#000000" font-family="sans-serif" font-size="11" lengthAdjust="spacingAndGlyphs" textLength="66" x="12.5" y="482.0151">base_mana</text><line style="stroke: #A80036; stroke-width: 1.5;" x1="7.5" x2="125.5" y1="488.6094" y2="488.6094"/><text fill="#000000" font-family="sans-serif" font-size="11" lengthAdjust="spacingAndGlyphs" textLength="50" x="12.5" y="502.8198">refresh()</text><text fill="#000000" font-family="sans-serif" font-size="11" lengthAdjust="spacingAndGlyphs" textLength="100" x="12.5" y="515.6245">bool ramp_up(int)</text><text fill="#000000" font-family="sans-serif" font-size="11" lengthAdjust="spacingAndGlyphs" textLength="108" x="12.5" y="528.4292">add_temporary(int)</text><text fill="#000000" font-family="sans-serif" font-size="11" lengthAdjust="spacingAndGlyphs" textLength="98" x="12.5" y="541.2339">add_overload(int)</text><text fill="#000000" font-family="sans-serif" font-size="11" lengthAdjust="spacingAndGlyphs" textLength="81" x="12.5" y="554.0386">use_mana(int)</text><text fill="#000000" font-family="sans-serif" font-size="11" lengthAdjust="spacingAndGlyphs" textLength="95" x="12.5" y="566.8433">destroy_crystal()</text><!--class HeroPower--><rect fill="#FEFECE" filter="url(#fpvxitv)" height="48" style="stroke: #A80036; stroke-width: 1.5;" width="100" x="530" y="698"/><ellipse cx="545" cy="714" fill="#ADD1B2" rx="11" ry="11" style="stroke: #A80036; stroke-width: 1.0;"/><path d="M547.9688,719.6406 Q547.3906,719.9375 546.75,720.0859 Q546.1094,720.2344 545.4063,720.2344 Q542.9063,720.2344 541.5859,718.5859 Q540.2656,716.9375 540.2656,713.8125 Q540.2656,710.6875 541.5859,709.0313 Q542.9063,707.375 545.4063,707.375 Q546.1094,707.375 546.7578,707.5313 Q547.4063,707.6875 547.9688,707.9844 L547.9688,710.7031 Q547.3438,710.125 546.75,709.8516 Q546.1563,709.5781 545.5313,709.5781 Q544.1875,709.5781 543.5,710.6484 Q542.8125,711.7188 542.8125,713.8125 Q542.8125,715.9063 543.5,716.9766 Q544.1875,718.0469 545.5313,718.0469 Q546.1563,718.0469 546.75,717.7734 Q547.3438,717.5 547.9688,716.9219 L547.9688,719.6406 Z "/><text fill="#000000" font-family="sans-serif" font-size="12" lengthAdjust="spacingAndGlyphs" textLength="68" x="559" y="718.1543">HeroPower</text><line style="stroke: #A80036; stroke-width: 1.5;" x1="531" x2="629" y1="730" y2="730"/><line style="stroke: #A80036; stroke-width: 1.5;" x1="531" x2="629" y1="738" y2="738"/><!--class Weapon--><rect fill="#FEFECE" filter="url(#fpvxitv)" height="124.8281" style="stroke: #A80036; stroke-width: 1.5;" width="111" x="846.75" y="659.5"/><ellipse cx="874.35" cy="675.5" fill="#ADD1B2" rx="11" ry="11" style="stroke: #A80036; stroke-width: 1.0;"/><path d="M877.3188,681.1406 Q876.7406,681.4375 876.1,681.5859 Q875.4594,681.7344 874.7563,681.7344 Q872.2563,681.7344 870.9359,680.0859 Q869.6156,678.4375 869.6156,675.3125 Q869.6156,672.1875 870.9359,670.5313 Q872.2563,668.875 874.7563,668.875 Q875.4594,668.875 876.1078,669.0313 Q876.7563,669.1875 877.3188,669.4844 L877.3188,672.2031 Q876.6938,671.625 876.1,671.3516 Q875.5063,671.0781 874.8813,671.0781 Q873.5375,671.0781 872.85,672.1484 Q872.1625,673.2188 872.1625,675.3125 Q872.1625,677.4063 872.85,678.4766 Q873.5375,679.5469 874.8813,679.5469 Q875.5063,679.5469 876.1,679.2734 Q876.6938,679 877.3188,678.4219 L877.3188,681.1406 Z "/><text fill="#000000" font-family="sans-serif" font-size="12" lengthAdjust="spacingAndGlyphs" textLength="51" x="891.15" y="679.6543">Weapon</text><line style="stroke: #A80036; stroke-width: 1.5;" x1="847.75" x2="956.75" y1="691.5" y2="691.5"/><text fill="#000000" font-family="sans-serif" font-size="11" lengthAdjust="spacingAndGlyphs" textLength="69" x="852.75" y="705.7104">base_power</text><text fill="#000000" font-family="sans-serif" font-size="11" lengthAdjust="spacingAndGlyphs" textLength="82" x="852.75" y="718.5151">current_power</text><text fill="#000000" font-family="sans-serif" font-size="11" lengthAdjust="spacingAndGlyphs" textLength="86" x="852.75" y="731.3198">base_durability</text><text fill="#000000" font-family="sans-serif" font-size="11" lengthAdjust="spacingAndGlyphs" textLength="99" x="852.75" y="744.1245">current_durability</text><text fill="#000000" font-family="sans-serif" font-size="11" lengthAdjust="spacingAndGlyphs" textLength="44" x="852.75" y="756.9292">abilities</text><line style="stroke: #A80036; stroke-width: 1.5;" x1="847.75" x2="956.75" y1="763.5234" y2="763.5234"/><text fill="#000000" font-family="sans-serif" font-size="11" lengthAdjust="spacingAndGlyphs" textLength="51" x="852.75" y="777.7339">destroy()</text><!--class Character--><rect fill="#FEFECE" filter="url(#fpvxitv)" height="60.8047" style="stroke: #A80036; stroke-width: 1.5;" width="148" x="632" y="250.5"/><ellipse cx="671.3" cy="266.5" fill="#ADD1B2" rx="11" ry="11" style="stroke: #A80036; stroke-width: 1.0;"/><path d="M674.2688,272.1406 Q673.6906,272.4375 673.05,272.5859 Q672.4094,272.7344 671.7063,272.7344 Q669.2063,272.7344 667.8859,271.0859 Q666.5656,269.4375 666.5656,266.3125 Q666.5656,263.1875 667.8859,261.5313 Q669.2063,259.875 671.7063,259.875 Q672.4094,259.875 673.0578,260.0313 Q673.7063,260.1875 674.2688,260.4844 L674.2688,263.2031 Q673.6438,262.625 673.05,262.3516 Q672.4563,262.0781 671.8313,262.0781 Q670.4875,262.0781 669.8,263.1484 Q669.1125,264.2188 669.1125,266.3125 Q669.1125,268.4063 669.8,269.4766 Q670.4875,270.5469 671.8313,270.5469 Q672.4563,270.5469 673.05,270.2734 Q673.6438,270 674.2688,269.4219 L674.2688,272.1406 Z "/><text fill="#000000" font-family="sans-serif" font-size="12" lengthAdjust="spacingAndGlyphs" textLength="62" x="690.7" y="270.6543">Character</text><line style="stroke: #A80036; stroke-width: 1.5;" x1="633" x2="779" y1="282.5" y2="282.5"/><line style="stroke: #A80036; stroke-width: 1.5;" x1="633" x2="779" y1="290.5" y2="290.5"/><text fill="#000000" font-family="sans-serif" font-size="11" lengthAdjust="spacingAndGlyphs" textLength="136" x="638" y="304.7104">attack_character(target)</text><!--class Minion--><rect fill="#FEFECE" filter="url(#fpvxitv)" height="163.2422" style="stroke: #A80036; stroke-width: 1.5;" width="118" x="731" y="416.5"/><ellipse cx="766.7" cy="432.5" fill="#ADD1B2" rx="11" ry="11" style="stroke: #A80036; stroke-width: 1.0;"/><path d="M769.6688,438.1406 Q769.0906,438.4375 768.45,438.5859 Q767.8094,438.7344 767.1063,438.7344 Q764.6063,438.7344 763.2859,437.0859 Q761.9656,435.4375 761.9656,432.3125 Q761.9656,429.1875 763.2859,427.5313 Q764.6063,425.875 767.1063,425.875 Q767.8094,425.875 768.4578,426.0313 Q769.1063,426.1875 769.6688,426.4844 L769.6688,429.2031 Q769.0438,428.625 768.45,428.3516 Q767.8563,428.0781 767.2313,428.0781 Q765.8875,428.0781 765.2,429.1484 Q764.5125,430.2188 764.5125,432.3125 Q764.5125,434.4063 765.2,435.4766 Q765.8875,436.5469 767.2313,436.5469 Q767.8563,436.5469 768.45,436.2734 Q769.0438,436 769.6688,435.4219 L769.6688,438.1406 Z "/><text fill="#000000" font-family="sans-serif" font-size="12" lengthAdjust="spacingAndGlyphs" textLength="40" x="785.3" y="436.6543">Minion</text><line style="stroke: #A80036; stroke-width: 1.5;" x1="732" x2="848" y1="448.5" y2="448.5"/><text fill="#000000" font-family="sans-serif" font-size="11" lengthAdjust="spacingAndGlyphs" textLength="69" x="737" y="462.7104">base_power</text><text fill="#000000" font-family="sans-serif" font-size="11" lengthAdjust="spacingAndGlyphs" textLength="82" x="737" y="475.5151">current_power</text><text fill="#000000" font-family="sans-serif" font-size="11" lengthAdjust="spacingAndGlyphs" textLength="69" x="737" y="488.3198">base_health</text><text fill="#000000" font-family="sans-serif" font-size="11" lengthAdjust="spacingAndGlyphs" textLength="97" x="737" y="501.1245">maximum_health</text><text fill="#000000" font-family="sans-serif" font-size="11" lengthAdjust="spacingAndGlyphs" textLength="82" x="737" y="513.9292">current_health</text><text fill="#000000" font-family="sans-serif" font-size="11" lengthAdjust="spacingAndGlyphs" textLength="45" x="737" y="526.7339">subtype</text><text fill="#000000" font-family="sans-serif" font-size="11" lengthAdjust="spacingAndGlyphs" textLength="44" x="737" y="539.5386">abilities</text><text fill="#000000" font-family="sans-serif" font-size="11" lengthAdjust="spacingAndGlyphs" textLength="106" x="737" y="552.3433">if_played_this_turn</text><line style="stroke: #A80036; stroke-width: 1.5;" x1="732" x2="848" y1="558.9375" y2="558.9375"/><text fill="#000000" font-family="sans-serif" font-size="11" lengthAdjust="spacingAndGlyphs" textLength="51" x="737" y="573.1479">destroy()</text><!--class Card--><rect fill="#FEFECE" filter="url(#fpvxitv)" height="99.2188" style="stroke: #A80036; stroke-width: 1.5;" width="74" x="836" y="231.5"/><ellipse cx="856.85" cy="247.5" fill="#ADD1B2" rx="11" ry="11" style="stroke: #A80036; stroke-width: 1.0;"/><path d="M859.8188,253.1406 Q859.2406,253.4375 858.6,253.5859 Q857.9594,253.7344 857.2563,253.7344 Q854.7563,253.7344 853.4359,252.0859 Q852.1156,250.4375 852.1156,247.3125 Q852.1156,244.1875 853.4359,242.5313 Q854.7563,240.875 857.2563,240.875 Q857.9594,240.875 858.6078,241.0313 Q859.2563,241.1875 859.8188,241.4844 L859.8188,244.2031 Q859.1938,243.625 858.6,243.3516 Q858.0063,243.0781 857.3813,243.0781 Q856.0375,243.0781 855.35,244.1484 Q854.6625,245.2188 854.6625,247.3125 Q854.6625,249.4063 855.35,250.4766 Q856.0375,251.5469 857.3813,251.5469 Q858.0063,251.5469 858.6,251.2734 Q859.1938,251 859.8188,250.4219 L859.8188,253.1406 Z "/><text fill="#000000" font-family="sans-serif" font-size="12" lengthAdjust="spacingAndGlyphs" textLength="29" x="872.15" y="251.6543">Card</text><line style="stroke: #A80036; stroke-width: 1.5;" x1="837" x2="909" y1="263.5" y2="263.5"/><text fill="#000000" font-family="sans-serif" font-size="11" lengthAdjust="spacingAndGlyphs" textLength="24" x="842" y="277.7104">type</text><text fill="#000000" font-family="sans-serif" font-size="11" lengthAdjust="spacingAndGlyphs" textLength="62" x="842" y="290.5151">mana_cost</text><text fill="#000000" font-family="sans-serif" font-size="11" lengthAdjust="spacingAndGlyphs" textLength="49" x="842" y="303.3198">overload</text><line style="stroke: #A80036; stroke-width: 1.5;" x1="837" x2="909" y1="309.9141" y2="309.9141"/><text fill="#000000" font-family="sans-serif" font-size="11" lengthAdjust="spacingAndGlyphs" textLength="56" x="842" y="324.1245">discover()</text><!--class Spell--><rect fill="#FEFECE" filter="url(#fpvxitv)" height="73.6094" style="stroke: #A80036; stroke-width: 1.5;" width="62" x="987.5" y="461"/><ellipse cx="1002.5" cy="477" fill="#ADD1B2" rx="11" ry="11" style="stroke: #A80036; stroke-width: 1.0;"/><path d="M1005.4688,482.6406 Q1004.8906,482.9375 1004.25,483.0859 Q1003.6094,483.2344 1002.9063,483.2344 Q1000.4063,483.2344 999.0859,481.5859 Q997.7656,479.9375 997.7656,476.8125 Q997.7656,473.6875 999.0859,472.0313 Q1000.4063,470.375 1002.9063,470.375 Q1003.6094,470.375 1004.2578,470.5313 Q1004.9063,470.6875 1005.4688,470.9844 L1005.4688,473.7031 Q1004.8438,473.125 1004.25,472.8516 Q1003.6563,472.5781 1003.0313,472.5781 Q1001.6875,472.5781 1001,473.6484 Q1000.3125,474.7188 1000.3125,476.8125 Q1000.3125,478.9063 1001,479.9766 Q1001.6875,481.0469 1003.0313,481.0469 Q1003.6563,481.0469 1004.25,480.7734 Q1004.8438,480.5 1005.4688,479.9219 L1005.4688,482.6406 Z "/><text fill="#000000" font-family="sans-serif" font-size="12" lengthAdjust="spacingAndGlyphs" textLength="30" x="1016.5" y="481.1543">Spell</text><line style="stroke: #A80036; stroke-width: 1.5;" x1="988.5" x2="1048.5" y1="493" y2="493"/><line style="stroke: #A80036; stroke-width: 1.5;" x1="988.5" x2="1048.5" y1="501" y2="501"/><text fill="#000000" font-family="sans-serif" font-size="11" lengthAdjust="spacingAndGlyphs" textLength="32" x="993.5" y="515.2104">cast()</text><text fill="#000000" font-family="sans-serif" font-size="11" lengthAdjust="spacingAndGlyphs" textLength="50" x="993.5" y="528.0151">resolve()</text><!--class Secret--><rect fill="#FEFECE" filter="url(#fpvxitv)" height="60.8047" style="stroke: #A80036; stroke-width: 1.5;" width="73" x="992.75" y="691.5"/><ellipse cx="1007.75" cy="707.5" fill="#ADD1B2" rx="11" ry="11" style="stroke: #A80036; stroke-width: 1.0;"/><path d="M1010.7188,713.1406 Q1010.1406,713.4375 1009.5,713.5859 Q1008.8594,713.7344 1008.1563,713.7344 Q1005.6563,713.7344 1004.3359,712.0859 Q1003.0156,710.4375 1003.0156,707.3125 Q1003.0156,704.1875 1004.3359,702.5313 Q1005.6563,700.875 1008.1563,700.875 Q1008.8594,700.875 1009.5078,701.0313 Q1010.1563,701.1875 1010.7188,701.4844 L1010.7188,704.2031 Q1010.0938,703.625 1009.5,703.3516 Q1008.9063,703.0781 1008.2813,703.0781 Q1006.9375,703.0781 1006.25,704.1484 Q1005.5625,705.2188 1005.5625,707.3125 Q1005.5625,709.4063 1006.25,710.4766 Q1006.9375,711.5469 1008.2813,711.5469 Q1008.9063,711.5469 1009.5,711.2734 Q1010.0938,711 1010.7188,710.4219 L1010.7188,713.1406 Z "/><text fill="#000000" font-family="sans-serif" font-size="12" lengthAdjust="spacingAndGlyphs" textLength="41" x="1021.75" y="711.6543">Secret</text><line style="stroke: #A80036; stroke-width: 1.5;" x1="993.75" x2="1064.75" y1="723.5" y2="723.5"/><line style="stroke: #A80036; stroke-width: 1.5;" x1="993.75" x2="1064.75" y1="731.5" y2="731.5"/><text fill="#000000" font-family="sans-serif" font-size="11" lengthAdjust="spacingAndGlyphs" textLength="52" x="998.75" y="745.7104">activate()</text><!--class MinionAbilities--><rect fill="#FEFECE" filter="url(#fpvxitv)" height="163.2422" style="stroke: #A80036; stroke-width: 1.5;" width="146" x="665" y="640.5"/><ellipse cx="691.7" cy="656.5" fill="#ADD1B2" rx="11" ry="11" style="stroke: #A80036; stroke-width: 1.0;"/><path d="M694.6688,662.1406 Q694.0906,662.4375 693.45,662.5859 Q692.8094,662.7344 692.1063,662.7344 Q689.6063,662.7344 688.2859,661.0859 Q686.9656,659.4375 686.9656,656.3125 Q686.9656,653.1875 688.2859,651.5313 Q689.6063,649.875 692.1063,649.875 Q692.8094,649.875 693.4578,650.0313 Q694.1063,650.1875 694.6688,650.4844 L694.6688,653.2031 Q694.0438,652.625 693.45,652.3516 Q692.8563,652.0781 692.2313,652.0781 Q690.8875,652.0781 690.2,653.1484 Q689.5125,654.2188 689.5125,656.3125 Q689.5125,658.4063 690.2,659.4766 Q690.8875,660.5469 692.2313,660.5469 Q692.8563,660.5469 693.45,660.2734 Q694.0438,660 694.6688,659.4219 L694.6688,662.1406 Z "/><text fill="#000000" font-family="sans-serif" font-size="12" lengthAdjust="spacingAndGlyphs" textLength="88" x="708.3" y="660.6543">MinionAbilities</text><line style="stroke: #A80036; stroke-width: 1.5;" x1="666" x2="810" y1="672.5" y2="672.5"/><text fill="#000000" font-family="sans-serif" font-size="11" lengthAdjust="spacingAndGlyphs" textLength="39" x="671" y="686.7104">stealth</text><text fill="#000000" font-family="sans-serif" font-size="11" lengthAdjust="spacingAndGlyphs" textLength="39" x="671" y="699.5151">charge</text><text fill="#000000" font-family="sans-serif" font-size="11" lengthAdjust="spacingAndGlyphs" textLength="62" x="671" y="712.3198">deathrattle</text><text fill="#000000" font-family="sans-serif" font-size="11" lengthAdjust="spacingAndGlyphs" textLength="29" x="671" y="725.1245">taunt</text><text fill="#000000" font-family="sans-serif" font-size="11" lengthAdjust="spacingAndGlyphs" textLength="73" x="671" y="737.9292">divine_shield</text><text fill="#000000" font-family="sans-serif" font-size="11" lengthAdjust="spacingAndGlyphs" textLength="48" x="671" y="750.7339">windfury</text><text fill="#000000" font-family="sans-serif" font-size="11" lengthAdjust="spacingAndGlyphs" textLength="39" x="671" y="763.5386">inspire</text><text fill="#000000" font-family="sans-serif" font-size="11" lengthAdjust="spacingAndGlyphs" textLength="49" x="671" y="776.3433">battlecry</text><text fill="#000000" font-family="sans-serif" font-size="11" lengthAdjust="spacingAndGlyphs" textLength="134" x="671" y="789.1479">special_minion_abilities</text><line style="stroke: #A80036; stroke-width: 1.5;" x1="666" x2="810" y1="795.7422" y2="795.7422"/><!--class SpecialMinionAbilities--><rect fill="#FEFECE" filter="url(#fpvxitv)" height="163.2422" style="stroke: #A80036; stroke-width: 1.5;" width="350" x="502" y="864.5"/><ellipse cx="606.25" cy="880.5" fill="#ADD1B2" rx="11" ry="11" style="stroke: #A80036; stroke-width: 1.0;"/><path d="M609.2188,886.1406 Q608.6406,886.4375 608,886.5859 Q607.3594,886.7344 606.6563,886.7344 Q604.1563,886.7344 602.8359,885.0859 Q601.5156,883.4375 601.5156,880.3125 Q601.5156,877.1875 602.8359,875.5313 Q604.1563,873.875 606.6563,873.875 Q607.3594,873.875 608.0078,874.0313 Q608.6563,874.1875 609.2188,874.4844 L609.2188,877.2031 Q608.5938,876.625 608,876.3516 Q607.4063,876.0781 606.7813,876.0781 Q605.4375,876.0781 604.75,877.1484 Q604.0625,878.2188 604.0625,880.3125 Q604.0625,882.4063 604.75,883.4766 Q605.4375,884.5469 606.7813,884.5469 Q607.4063,884.5469 608,884.2734 Q608.5938,884 609.2188,883.4219 L609.2188,886.1406 Z "/><text fill="#000000" font-family="sans-serif" font-size="12" lengthAdjust="spacingAndGlyphs" textLength="133" x="626.75" y="884.6543">SpecialMinionAbilities</text><line style="stroke: #A80036; stroke-width: 1.5;" x1="503" x2="851" y1="896.5" y2="896.5"/><text fill="#000000" font-family="sans-serif" font-size="11" lengthAdjust="spacingAndGlyphs" textLength="139" x="508" y="910.7104">at_the_end_of_your_turn</text><text fill="#000000" font-family="sans-serif" font-size="11" lengthAdjust="spacingAndGlyphs" textLength="145" x="508" y="923.5151">at_the_start_of_your_turn</text><text fill="#000000" font-family="sans-serif" font-size="11" lengthAdjust="spacingAndGlyphs" textLength="167" x="508" y="936.3198">whenever_you_play_a_minion</text><text fill="#000000" font-family="sans-serif" font-size="11" lengthAdjust="spacingAndGlyphs" textLength="157" x="508" y="949.1245">whenever_you_cast_a_spell</text><text fill="#000000" font-family="sans-serif" font-size="11" lengthAdjust="spacingAndGlyphs" textLength="207" x="508" y="961.9292">whenever_opponent_plays_a_minion</text><text fill="#000000" font-family="sans-serif" font-size="11" lengthAdjust="spacingAndGlyphs" textLength="197" x="508" y="974.7339">whenever_opponent_casts_a_spell</text><text fill="#000000" font-family="sans-serif" font-size="11" lengthAdjust="spacingAndGlyphs" textLength="181" x="508" y="987.5386">whenever_you_equip_a_weapon</text><text fill="#000000" font-family="sans-serif" font-size="11" lengthAdjust="spacingAndGlyphs" textLength="267" x="508" y="1000.3433">whenever_you_target_this_minion_with_a_spell</text><text fill="#000000" font-family="sans-serif" font-size="11" lengthAdjust="spacingAndGlyphs" textLength="338" x="508" y="1013.1479">whenever_you_target_another_friendly_minion_with_a_spell</text><line style="stroke: #A80036; stroke-width: 1.5;" x1="503" x2="851" y1="1019.7422" y2="1019.7422"/><!--class WeaponAbilities--><rect fill="#FEFECE" filter="url(#fpvxitv)" height="99.2188" style="stroke: #A80036; stroke-width: 1.5;" width="152" x="887" y="896.5"/><ellipse cx="911.45" cy="912.5" fill="#ADD1B2" rx="11" ry="11" style="stroke: #A80036; stroke-width: 1.0;"/><path d="M914.4188,918.1406 Q913.8406,918.4375 913.2,918.5859 Q912.5594,918.7344 911.8563,918.7344 Q909.3563,918.7344 908.0359,917.0859 Q906.7156,915.4375 906.7156,912.3125 Q906.7156,909.1875 908.0359,907.5313 Q909.3563,905.875 911.8563,905.875 Q912.5594,905.875 913.2078,906.0313 Q913.8563,906.1875 914.4188,906.4844 L914.4188,909.2031 Q913.7938,908.625 913.2,908.3516 Q912.6063,908.0781 911.9813,908.0781 Q910.6375,908.0781 909.95,909.1484 Q909.2625,910.2188 909.2625,912.3125 Q909.2625,914.4063 909.95,915.4766 Q910.6375,916.5469 911.9813,916.5469 Q912.6063,916.5469 913.2,916.2734 Q913.7938,916 914.4188,915.4219 L914.4188,918.1406 Z "/><text fill="#000000" font-family="sans-serif" font-size="12" lengthAdjust="spacingAndGlyphs" textLength="99" x="927.55" y="916.6543">WeaponAbilities</text><line style="stroke: #A80036; stroke-width: 1.5;" x1="888" x2="1038" y1="928.5" y2="928.5"/><text fill="#000000" font-family="sans-serif" font-size="11" lengthAdjust="spacingAndGlyphs" textLength="48" x="893" y="942.7104">windfury</text><text fill="#000000" font-family="sans-serif" font-size="11" lengthAdjust="spacingAndGlyphs" textLength="49" x="893" y="955.5151">battlecry</text><text fill="#000000" font-family="sans-serif" font-size="11" lengthAdjust="spacingAndGlyphs" textLength="69" x="893" y="968.3198">deathreattle</text><text fill="#000000" font-family="sans-serif" font-size="11" lengthAdjust="spacingAndGlyphs" textLength="140" x="893" y="981.1245">special_weapon_abilities</text><line style="stroke: #A80036; stroke-width: 1.5;" x1="888" x2="1038" y1="987.7188" y2="987.7188"/><!--class SpecialWeaponAbilities--><rect fill="#FEFECE" filter="url(#fpvxitv)" height="73.6094" style="stroke: #A80036; stroke-width: 1.5;" width="213" x="856.75" y="1088"/><ellipse cx="888.4" cy="1104" fill="#ADD1B2" rx="11" ry="11" style="stroke: #A80036; stroke-width: 1.0;"/><path d="M891.3688,1109.6406 Q890.7906,1109.9375 890.15,1110.0859 Q889.5094,1110.2344 888.8063,1110.2344 Q886.3063,1110.2344 884.9859,1108.5859 Q883.6656,1106.9375 883.6656,1103.8125 Q883.6656,1100.6875 884.9859,1099.0313 Q886.3063,1097.375 888.8063,1097.375 Q889.5094,1097.375 890.1578,1097.5313 Q890.8063,1097.6875 891.3688,1097.9844 L891.3688,1100.7031 Q890.7438,1100.125 890.15,1099.8516 Q889.5563,1099.5781 888.9313,1099.5781 Q887.5875,1099.5781 886.9,1100.6484 Q886.2125,1101.7188 886.2125,1103.8125 Q886.2125,1105.9063 886.9,1106.9766 Q887.5875,1108.0469 888.9313,1108.0469 Q889.5563,1108.0469 890.15,1107.7734 Q890.7438,1107.5 891.3688,1106.9219 L891.3688,1109.6406 Z "/><text fill="#000000" font-family="sans-serif" font-size="12" lengthAdjust="spacingAndGlyphs" textLength="144" x="906.1" y="1108.1543">SpecialWeaponAbilities</text><line style="stroke: #A80036; stroke-width: 1.5;" x1="857.75" x2="1068.75" y1="1120" y2="1120"/><text fill="#000000" font-family="sans-serif" font-size="11" lengthAdjust="spacingAndGlyphs" textLength="167" x="862.75" y="1134.2104">whenever_you_play_a_minion</text><text fill="#000000" font-family="sans-serif" font-size="11" lengthAdjust="spacingAndGlyphs" textLength="201" x="862.75" y="1147.0151">whenever_your_secret_is_activated</text><line style="stroke: #A80036; stroke-width: 1.5;" x1="857.75" x2="1068.75" y1="1153.6094" y2="1153.6094"/><!--class Action--><rect fill="#FEFECE" filter="url(#fpvxitv)" height="86.4141" style="stroke: #A80036; stroke-width: 1.5;" width="112" x="87.5" y="34"/><ellipse cx="120.95" cy="50" fill="#ADD1B2" rx="11" ry="11" style="stroke: #A80036; stroke-width: 1.0;"/><path d="M123.9188,55.6406 Q123.3406,55.9375 122.7,56.0859 Q122.0594,56.2344 121.3563,56.2344 Q118.8563,56.2344 117.5359,54.5859 Q116.2156,52.9375 116.2156,49.8125 Q116.2156,46.6875 117.5359,45.0313 Q118.8563,43.375 121.3563,43.375 Q122.0594,43.375 122.7078,43.5313 Q123.3563,43.6875 123.9188,43.9844 L123.9188,46.7031 Q123.2938,46.125 122.7,45.8516 Q122.1063,45.5781 121.4813,45.5781 Q120.1375,45.5781 119.45,46.6484 Q118.7625,47.7188 118.7625,49.8125 Q118.7625,51.9063 119.45,52.9766 Q120.1375,54.0469 121.4813,54.0469 Q122.1063,54.0469 122.7,53.7734 Q123.2938,53.5 123.9188,52.9219 L123.9188,55.6406 Z "/><text fill="#000000" font-family="sans-serif" font-size="12" lengthAdjust="spacingAndGlyphs" textLength="39" x="139.05" y="54.1543">Action</text><line style="stroke: #A80036; stroke-width: 1.5;" x1="88.5" x2="198.5" y1="66" y2="66"/><text fill="#000000" font-family="sans-serif" font-size="11" lengthAdjust="spacingAndGlyphs" textLength="84" x="93.5" y="80.2104">requierements</text><text fill="#000000" font-family="sans-serif" font-size="11" lengthAdjust="spacingAndGlyphs" textLength="82" x="93.5" y="93.0151">consequences</text><line style="stroke: #A80036; stroke-width: 1.5;" x1="88.5" x2="198.5" y1="99.6094" y2="99.6094"/><text fill="#000000" font-family="sans-serif" font-size="11" lengthAdjust="spacingAndGlyphs" textLength="100" x="93.5" y="113.8198">bool is_possible()</text><!--class TargetHelpers--><rect fill="#FEFECE" filter="url(#fpvxitv)" height="99.2188" style="stroke: #A80036; stroke-width: 1.5;" width="244" x="379" y="27.5"/><ellipse cx="452.25" cy="43.5" fill="#ADD1B2" rx="11" ry="11" style="stroke: #A80036; stroke-width: 1.0;"/><path d="M455.2188,49.1406 Q454.6406,49.4375 454,49.5859 Q453.3594,49.7344 452.6563,49.7344 Q450.1563,49.7344 448.8359,48.0859 Q447.5156,46.4375 447.5156,43.3125 Q447.5156,40.1875 448.8359,38.5313 Q450.1563,36.875 452.6563,36.875 Q453.3594,36.875 454.0078,37.0313 Q454.6563,37.1875 455.2188,37.4844 L455.2188,40.2031 Q454.5938,39.625 454,39.3516 Q453.4063,39.0781 452.7813,39.0781 Q451.4375,39.0781 450.75,40.1484 Q450.0625,41.2188 450.0625,43.3125 Q450.0625,45.4063 450.75,46.4766 Q451.4375,47.5469 452.7813,47.5469 Q453.4063,47.5469 454,47.2734 Q454.5938,47 455.2188,46.4219 L455.2188,49.1406 Z "/><text fill="#000000" font-family="sans-serif" font-size="12" lengthAdjust="spacingAndGlyphs" textLength="89" x="472.75" y="47.6543">TargetHelpers</text><line style="stroke: #A80036; stroke-width: 1.5;" x1="380" x2="622" y1="59.5" y2="59.5"/><line style="stroke: #A80036; stroke-width: 1.5;" x1="380" x2="622" y1="67.5" y2="67.5"/><text fill="#000000" font-family="sans-serif" font-size="11" lengthAdjust="spacingAndGlyphs" textLength="232" x="385" y="81.7104">valid_attack_targets(attacking_character)</text><text fill="#000000" font-family="sans-serif" font-size="11" lengthAdjust="spacingAndGlyphs" textLength="141" x="385" y="94.5151">valid_spell_targets(spell)</text><text fill="#000000" font-family="sans-serif" font-size="11" lengthAdjust="spacingAndGlyphs" textLength="157" x="385" y="107.3198">battlefield_postions(minion)</text><text fill="#000000" font-family="sans-serif" font-size="11" lengthAdjust="spacingAndGlyphs" textLength="170" x="385" y="120.1245">friend_or_foe(card, character)</text><!--class ZoneHelpers--><rect fill="#FEFECE" filter="url(#fpvxitv)" height="99.2188" style="stroke: #A80036; stroke-width: 1.5;" width="145" x="70.75" y="231.5"/><ellipse cx="100.15" cy="247.5" fill="#ADD1B2" rx="11" ry="11" style="stroke: #A80036; stroke-width: 1.0;"/><path d="M103.1188,253.1406 Q102.5406,253.4375 101.9,253.5859 Q101.2594,253.7344 100.5563,253.7344 Q98.0563,253.7344 96.7359,252.0859 Q95.4156,250.4375 95.4156,247.3125 Q95.4156,244.1875 96.7359,242.5313 Q98.0563,240.875 100.5563,240.875 Q101.2594,240.875 101.9078,241.0313 Q102.5563,241.1875 103.1188,241.4844 L103.1188,244.2031 Q102.4938,243.625 101.9,243.3516 Q101.3063,243.0781 100.6813,243.0781 Q99.3375,243.0781 98.65,244.1484 Q97.9625,245.2188 97.9625,247.3125 Q97.9625,249.4063 98.65,250.4766 Q99.3375,251.5469 100.6813,251.5469 Q101.3063,251.5469 101.9,251.2734 Q102.4938,251 103.1188,250.4219 L103.1188,253.1406 Z "/><text fill="#000000" font-family="sans-serif" font-size="12" lengthAdjust="spacingAndGlyphs" textLength="81" x="117.35" y="251.6543">ZoneHelpers</text><line style="stroke: #A80036; stroke-width: 1.5;" x1="71.75" x2="214.75" y1="263.5" y2="263.5"/><line style="stroke: #A80036; stroke-width: 1.5;" x1="71.75" x2="214.75" y1="271.5" y2="271.5"/><text fill="#000000" font-family="sans-serif" font-size="11" lengthAdjust="spacingAndGlyphs" textLength="133" x="76.75" y="285.7104">on_the_battlefield(card)</text><text fill="#000000" font-family="sans-serif" font-size="11" lengthAdjust="spacingAndGlyphs" textLength="101" x="76.75" y="298.5151">in_the_hand(card)</text><text fill="#000000" font-family="sans-serif" font-size="11" lengthAdjust="spacingAndGlyphs" textLength="99" x="76.75" y="311.3198">in_the_deck(card)</text><text fill="#000000" font-family="sans-serif" font-size="11" lengthAdjust="spacingAndGlyphs" textLength="68" x="76.75" y="324.1245">owner(card)</text><!--class CombatHelpers--><rect fill="#FEFECE" filter="url(#fpvxitv)" height="60.8047" style="stroke: #A80036; stroke-width: 1.5;" width="150" x="251.5" y="250.5"/><ellipse cx="276.4" cy="266.5" fill="#ADD1B2" rx="11" ry="11" style="stroke: #A80036; stroke-width: 1.0;"/><path d="M279.3688,272.1406 Q278.7906,272.4375 278.15,272.5859 Q277.5094,272.7344 276.8063,272.7344 Q274.3063,272.7344 272.9859,271.0859 Q271.6656,269.4375 271.6656,266.3125 Q271.6656,263.1875 272.9859,261.5313 Q274.3063,259.875 276.8063,259.875 Q277.5094,259.875 278.1578,260.0313 Q278.8063,260.1875 279.3688,260.4844 L279.3688,263.2031 Q278.7438,262.625 278.15,262.3516 Q277.5563,262.0781 276.9313,262.0781 Q275.5875,262.0781 274.9,263.1484 Q274.2125,264.2188 274.2125,266.3125 Q274.2125,268.4063 274.9,269.4766 Q275.5875,270.5469 276.9313,270.5469 Q277.5563,270.5469 278.15,270.2734 Q278.7438,270 279.3688,269.4219 L279.3688,272.1406 Z "/><text fill="#000000" font-family="sans-serif" font-size="12" lengthAdjust="spacingAndGlyphs" textLength="96" x="292.6" y="270.6543">CombatHelpers</text><line style="stroke: #A80036; stroke-width: 1.5;" x1="252.5" x2="400.5" y1="282.5" y2="282.5"/><line style="stroke: #A80036; stroke-width: 1.5;" x1="252.5" x2="400.5" y1="290.5" y2="290.5"/><text fill="#000000" font-family="sans-serif" font-size="11" lengthAdjust="spacingAndGlyphs" textLength="138" x="257.5" y="304.7104">fight(attacker, defender)</text><!--class Event--><rect fill="#FEFECE" filter="url(#fpvxitv)" height="48" style="stroke: #A80036; stroke-width: 1.5;" width="67" x="2414.75" y="53"/><ellipse cx="2429.75" cy="69" fill="#ADD1B2" rx="11" ry="11" style="stroke: #A80036; stroke-width: 1.0;"/><path d="M2432.7188,74.6406 Q2432.1406,74.9375 2431.5,75.0859 Q2430.8594,75.2344 2430.1563,75.2344 Q2427.6563,75.2344 2426.3359,73.5859 Q2425.0156,71.9375 2425.0156,68.8125 Q2425.0156,65.6875 2426.3359,64.0313 Q2427.6563,62.375 2430.1563,62.375 Q2430.8594,62.375 2431.5078,62.5313 Q2432.1563,62.6875 2432.7188,62.9844 L2432.7188,65.7031 Q2432.0938,65.125 2431.5,64.8516 Q2430.9063,64.5781 2430.2813,64.5781 Q2428.9375,64.5781 2428.25,65.6484 Q2427.5625,66.7188 2427.5625,68.8125 Q2427.5625,70.9063 2428.25,71.9766 Q2428.9375,73.0469 2430.2813,73.0469 Q2430.9063,73.0469 2431.5,72.7734 Q2432.0938,72.5 2432.7188,71.9219 L2432.7188,74.6406 Z "/><text fill="#000000" font-family="sans-serif" font-size="12" lengthAdjust="spacingAndGlyphs" textLength="35" x="2443.75" y="73.1543">Event</text><line style="stroke: #A80036; stroke-width: 1.5;" x1="2415.75" x2="2480.75" y1="85" y2="85"/><line style="stroke: #A80036; stroke-width: 1.5;" x1="2415.75" x2="2480.75" y1="93" y2="93"/><!--class Attack--><rect fill="#FEFECE" filter="url(#fpvxitv)" height="73.6094" style="stroke: #A80036; stroke-width: 1.5;" width="123" x="1414.75" y="244"/><ellipse cx="1452.7" cy="260" fill="#ADD1B2" rx="11" ry="11" style="stroke: #A80036; stroke-width: 1.0;"/><path d="M1455.6688,265.6406 Q1455.0906,265.9375 1454.45,266.0859 Q1453.8094,266.2344 1453.1063,266.2344 Q1450.6063,266.2344 1449.2859,264.5859 Q1447.9656,262.9375 1447.9656,259.8125 Q1447.9656,256.6875 1449.2859,255.0313 Q1450.6063,253.375 1453.1063,253.375 Q1453.8094,253.375 1454.4578,253.5313 Q1455.1063,253.6875 1455.6688,253.9844 L1455.6688,256.7031 Q1455.0438,256.125 1454.45,255.8516 Q1453.8563,255.5781 1453.2313,255.5781 Q1451.8875,255.5781 1451.2,256.6484 Q1450.5125,257.7188 1450.5125,259.8125 Q1450.5125,261.9063 1451.2,262.9766 Q1451.8875,264.0469 1453.2313,264.0469 Q1453.8563,264.0469 1454.45,263.7734 Q1455.0438,263.5 1455.6688,262.9219 L1455.6688,265.6406 Z "/><text fill="#000000" font-family="sans-serif" font-size="12" lengthAdjust="spacingAndGlyphs" textLength="40" x="1471.8" y="264.1543">Attack</text><line style="stroke: #A80036; stroke-width: 1.5;" x1="1415.75" x2="1536.75" y1="276" y2="276"/><text fill="#000000" font-family="sans-serif" font-size="11" lengthAdjust="spacingAndGlyphs" textLength="111" x="1420.75" y="290.2104">attacking_character</text><text fill="#000000" font-family="sans-serif" font-size="11" lengthAdjust="spacingAndGlyphs" textLength="108" x="1420.75" y="303.0151">attacked_character</text><line style="stroke: #A80036; stroke-width: 1.5;" x1="1415.75" x2="1536.75" y1="309.6094" y2="309.6094"/><!--class AttackOnMinion--><rect fill="#FEFECE" filter="url(#fpvxitv)" height="48" style="stroke: #A80036; stroke-width: 1.5;" width="129" x="1296.75" y="474"/><ellipse cx="1311.75" cy="490" fill="#ADD1B2" rx="11" ry="11" style="stroke: #A80036; stroke-width: 1.0;"/><path d="M1314.7188,495.6406 Q1314.1406,495.9375 1313.5,496.0859 Q1312.8594,496.2344 1312.1563,496.2344 Q1309.6563,496.2344 1308.3359,494.5859 Q1307.0156,492.9375 1307.0156,489.8125 Q1307.0156,486.6875 1308.3359,485.0313 Q1309.6563,483.375 1312.1563,483.375 Q1312.8594,483.375 1313.5078,483.5313 Q1314.1563,483.6875 1314.7188,483.9844 L1314.7188,486.7031 Q1314.0938,486.125 1313.5,485.8516 Q1312.9063,485.5781 1312.2813,485.5781 Q1310.9375,485.5781 1310.25,486.6484 Q1309.5625,487.7188 1309.5625,489.8125 Q1309.5625,491.9063 1310.25,492.9766 Q1310.9375,494.0469 1312.2813,494.0469 Q1312.9063,494.0469 1313.5,493.7734 Q1314.0938,493.5 1314.7188,492.9219 L1314.7188,495.6406 Z "/><text fill="#000000" font-family="sans-serif" font-size="12" lengthAdjust="spacingAndGlyphs" textLength="97" x="1325.75" y="494.1543">AttackOnMinion</text><line style="stroke: #A80036; stroke-width: 1.5;" x1="1297.75" x2="1424.75" y1="506" y2="506"/><line style="stroke: #A80036; stroke-width: 1.5;" x1="1297.75" x2="1424.75" y1="514" y2="514"/><!--class AttackOnPlayer--><rect fill="#FEFECE" filter="url(#fpvxitv)" height="48" style="stroke: #A80036; stroke-width: 1.5;" width="127" x="1460.75" y="474"/><ellipse cx="1475.75" cy="490" fill="#ADD1B2" rx="11" ry="11" style="stroke: #A80036; stroke-width: 1.0;"/><path d="M1478.7188,495.6406 Q1478.1406,495.9375 1477.5,496.0859 Q1476.8594,496.2344 1476.1563,496.2344 Q1473.6563,496.2344 1472.3359,494.5859 Q1471.0156,492.9375 1471.0156,489.8125 Q1471.0156,486.6875 1472.3359,485.0313 Q1473.6563,483.375 1476.1563,483.375 Q1476.8594,483.375 1477.5078,483.5313 Q1478.1563,483.6875 1478.7188,483.9844 L1478.7188,486.7031 Q1478.0938,486.125 1477.5,485.8516 Q1476.9063,485.5781 1476.2813,485.5781 Q1474.9375,485.5781 1474.25,486.6484 Q1473.5625,487.7188 1473.5625,489.8125 Q1473.5625,491.9063 1474.25,492.9766 Q1474.9375,494.0469 1476.2813,494.0469 Q1476.9063,494.0469 1477.5,493.7734 Q1478.0938,493.5 1478.7188,492.9219 L1478.7188,495.6406 Z "/><text fill="#000000" font-family="sans-serif" font-size="12" lengthAdjust="spacingAndGlyphs" textLength="95" x="1489.75" y="494.1543">AttackOnPlayer</text><line style="stroke: #A80036; stroke-width: 1.5;" x1="1461.75" x2="1586.75" y1="506" y2="506"/><line style="stroke: #A80036; stroke-width: 1.5;" x1="1461.75" x2="1586.75" y1="514" y2="514"/><!--class CardDrawn--><rect fill="#FEFECE" filter="url(#fpvxitv)" height="48" style="stroke: #A80036; stroke-width: 1.5;" width="100" x="1573" y="257"/><ellipse cx="1588" cy="273" fill="#ADD1B2" rx="11" ry="11" style="stroke: #A80036; stroke-width: 1.0;"/><path d="M1590.9688,278.6406 Q1590.3906,278.9375 1589.75,279.0859 Q1589.1094,279.2344 1588.4063,279.2344 Q1585.9063,279.2344 1584.5859,277.5859 Q1583.2656,275.9375 1583.2656,272.8125 Q1583.2656,269.6875 1584.5859,268.0313 Q1585.9063,266.375 1588.4063,266.375 Q1589.1094,266.375 1589.7578,266.5313 Q1590.4063,266.6875 1590.9688,266.9844 L1590.9688,269.7031 Q1590.3438,269.125 1589.75,268.8516 Q1589.1563,268.5781 1588.5313,268.5781 Q1587.1875,268.5781 1586.5,269.6484 Q1585.8125,270.7188 1585.8125,272.8125 Q1585.8125,274.9063 1586.5,275.9766 Q1587.1875,277.0469 1588.5313,277.0469 Q1589.1563,277.0469 1589.75,276.7734 Q1590.3438,276.5 1590.9688,275.9219 L1590.9688,278.6406 Z "/><text fill="#000000" font-family="sans-serif" font-size="12" lengthAdjust="spacingAndGlyphs" textLength="68" x="1602" y="277.1543">CardDrawn</text><line style="stroke: #A80036; stroke-width: 1.5;" x1="1574" x2="1672" y1="289" y2="289"/><line style="stroke: #A80036; stroke-width: 1.5;" x1="1574" x2="1672" y1="297" y2="297"/><!--class DamageDealt--><rect fill="#FEFECE" filter="url(#fpvxitv)" height="48" style="stroke: #A80036; stroke-width: 1.5;" width="117" x="1708.75" y="257"/><ellipse cx="1723.75" cy="273" fill="#ADD1B2" rx="11" ry="11" style="stroke: #A80036; stroke-width: 1.0;"/><path d="M1726.7188,278.6406 Q1726.1406,278.9375 1725.5,279.0859 Q1724.8594,279.2344 1724.1563,279.2344 Q1721.6563,279.2344 1720.3359,277.5859 Q1719.0156,275.9375 1719.0156,272.8125 Q1719.0156,269.6875 1720.3359,268.0313 Q1721.6563,266.375 1724.1563,266.375 Q1724.8594,266.375 1725.5078,266.5313 Q1726.1563,266.6875 1726.7188,266.9844 L1726.7188,269.7031 Q1726.0938,269.125 1725.5,268.8516 Q1724.9063,268.5781 1724.2813,268.5781 Q1722.9375,268.5781 1722.25,269.6484 Q1721.5625,270.7188 1721.5625,272.8125 Q1721.5625,274.9063 1722.25,275.9766 Q1722.9375,277.0469 1724.2813,277.0469 Q1724.9063,277.0469 1725.5,276.7734 Q1726.0938,276.5 1726.7188,275.9219 L1726.7188,278.6406 Z "/><text fill="#000000" font-family="sans-serif" font-size="12" lengthAdjust="spacingAndGlyphs" textLength="85" x="1737.75" y="277.1543">DamageDealt</text><line style="stroke: #A80036; stroke-width: 1.5;" x1="1709.75" x2="1824.75" y1="289" y2="289"/><line style="stroke: #A80036; stroke-width: 1.5;" x1="1709.75" x2="1824.75" y1="297" y2="297"/><!--class EndOfTurn--><rect fill="#FEFECE" filter="url(#fpvxitv)" height="48" style="stroke: #A80036; stroke-width: 1.5;" width="97" x="1860.75" y="257"/><ellipse cx="1875.75" cy="273" fill="#ADD1B2" rx="11" ry="11" style="stroke: #A80036; stroke-width: 1.0;"/><path d="M1878.7188,278.6406 Q1878.1406,278.9375 1877.5,279.0859 Q1876.8594,279.2344 1876.1563,279.2344 Q1873.6563,279.2344 1872.3359,277.5859 Q1871.0156,275.9375 1871.0156,272.8125 Q1871.0156,269.6875 1872.3359,268.0313 Q1873.6563,266.375 1876.1563,266.375 Q1876.8594,266.375 1877.5078,266.5313 Q1878.1563,266.6875 1878.7188,266.9844 L1878.7188,269.7031 Q1878.0938,269.125 1877.5,268.8516 Q1876.9063,268.5781 1876.2813,268.5781 Q1874.9375,268.5781 1874.25,269.6484 Q1873.5625,270.7188 1873.5625,272.8125 Q1873.5625,274.9063 1874.25,275.9766 Q1874.9375,277.0469 1876.2813,277.0469 Q1876.9063,277.0469 1877.5,276.7734 Q1878.0938,276.5 1878.7188,275.9219 L1878.7188,278.6406 Z "/><text fill="#000000" font-family="sans-serif" font-size="12" lengthAdjust="spacingAndGlyphs" textLength="65" x="1889.75" y="277.1543">EndOfTurn</text><line style="stroke: #A80036; stroke-width: 1.5;" x1="1861.75" x2="1956.75" y1="289" y2="289"/><line style="stroke: #A80036; stroke-width: 1.5;" x1="1861.75" x2="1956.75" y1="297" y2="297"/><!--class BeginningOfTurn--><rect fill="#FEFECE" filter="url(#fpvxitv)" height="48" style="stroke: #A80036; stroke-width: 1.5;" width="135" x="1992.75" y="257"/><ellipse cx="2007.75" cy="273" fill="#ADD1B2" rx="11" ry="11" style="stroke: #A80036; stroke-width: 1.0;"/><path d="M2010.7188,278.6406 Q2010.1406,278.9375 2009.5,279.0859 Q2008.8594,279.2344 2008.1563,279.2344 Q2005.6563,279.2344 2004.3359,277.5859 Q2003.0156,275.9375 2003.0156,272.8125 Q2003.0156,269.6875 2004.3359,268.0313 Q2005.6563,266.375 2008.1563,266.375 Q2008.8594,266.375 2009.5078,266.5313 Q2010.1563,266.6875 2010.7188,266.9844 L2010.7188,269.7031 Q2010.0938,269.125 2009.5,268.8516 Q2008.9063,268.5781 2008.2813,268.5781 Q2006.9375,268.5781 2006.25,269.6484 Q2005.5625,270.7188 2005.5625,272.8125 Q2005.5625,274.9063 2006.25,275.9766 Q2006.9375,277.0469 2008.2813,277.0469 Q2008.9063,277.0469 2009.5,276.7734 Q2010.0938,276.5 2010.7188,275.9219 L2010.7188,278.6406 Z "/><text fill="#000000" font-family="sans-serif" font-size="12" lengthAdjust="spacingAndGlyphs" textLength="103" x="2021.75" y="277.1543">BeginningOfTurn</text><line style="stroke: #A80036; stroke-width: 1.5;" x1="1993.75" x2="2126.75" y1="289" y2="289"/><line style="stroke: #A80036; stroke-width: 1.5;" x1="1993.75" x2="2126.75" y1="297" y2="297"/><!--class MinionDies--><rect fill="#FEFECE" filter="url(#fpvxitv)" height="48" style="stroke: #A80036; stroke-width: 1.5;" width="99" x="2162.75" y="257"/><ellipse cx="2177.75" cy="273" fill="#ADD1B2" rx="11" ry="11" style="stroke: #A80036; stroke-width: 1.0;"/><path d="M2180.7188,278.6406 Q2180.1406,278.9375 2179.5,279.0859 Q2178.8594,279.2344 2178.1563,279.2344 Q2175.6563,279.2344 2174.3359,277.5859 Q2173.0156,275.9375 2173.0156,272.8125 Q2173.0156,269.6875 2174.3359,268.0313 Q2175.6563,266.375 2178.1563,266.375 Q2178.8594,266.375 2179.5078,266.5313 Q2180.1563,266.6875 2180.7188,266.9844 L2180.7188,269.7031 Q2180.0938,269.125 2179.5,268.8516 Q2178.9063,268.5781 2178.2813,268.5781 Q2176.9375,268.5781 2176.25,269.6484 Q2175.5625,270.7188 2175.5625,272.8125 Q2175.5625,274.9063 2176.25,275.9766 Q2176.9375,277.0469 2178.2813,277.0469 Q2178.9063,277.0469 2179.5,276.7734 Q2180.0938,276.5 2180.7188,275.9219 L2180.7188,278.6406 Z "/><text fill="#000000" font-family="sans-serif" font-size="12" lengthAdjust="spacingAndGlyphs" textLength="67" x="2191.75" y="277.1543">MinionDies</text><line style="stroke: #A80036; stroke-width: 1.5;" x1="2163.75" x2="2260.75" y1="289" y2="289"/><line style="stroke: #A80036; stroke-width: 1.5;" x1="2163.75" x2="2260.75" y1="297" y2="297"/><!--class HeroPowerUsed--><rect fill="#FEFECE" filter="url(#fpvxitv)" height="48" style="stroke: #A80036; stroke-width: 1.5;" width="132" x="2297" y="257"/><ellipse cx="2312" cy="273" fill="#ADD1B2" rx="11" ry="11" style="stroke: #A80036; stroke-width: 1.0;"/><path d="M2314.9688,278.6406 Q2314.3906,278.9375 2313.75,279.0859 Q2313.1094,279.2344 2312.4063,279.2344 Q2309.9063,279.2344 2308.5859,277.5859 Q2307.2656,275.9375 2307.2656,272.8125 Q2307.2656,269.6875 2308.5859,268.0313 Q2309.9063,266.375 2312.4063,266.375 Q2313.1094,266.375 2313.7578,266.5313 Q2314.4063,266.6875 2314.9688,266.9844 L2314.9688,269.7031 Q2314.3438,269.125 2313.75,268.8516 Q2313.1563,268.5781 2312.5313,268.5781 Q2311.1875,268.5781 2310.5,269.6484 Q2309.8125,270.7188 2309.8125,272.8125 Q2309.8125,274.9063 2310.5,275.9766 Q2311.1875,277.0469 2312.5313,277.0469 Q2313.1563,277.0469 2313.75,276.7734 Q2314.3438,276.5 2314.9688,275.9219 L2314.9688,278.6406 Z "/><text fill="#000000" font-family="sans-serif" font-size="12" lengthAdjust="spacingAndGlyphs" textLength="100" x="2326" y="277.1543">HeroPowerUsed</text><line style="stroke: #A80036; stroke-width: 1.5;" x1="2298" x2="2428" y1="289" y2="289"/><line style="stroke: #A80036; stroke-width: 1.5;" x1="2298" x2="2428" y1="297" y2="297"/><!--class CharacterHealed--><rect fill="#FEFECE" filter="url(#fpvxitv)" height="48" style="stroke: #A80036; stroke-width: 1.5;" width="138" x="2464" y="257"/><ellipse cx="2479" cy="273" fill="#ADD1B2" rx="11" ry="11" style="stroke: #A80036; stroke-width: 1.0;"/><path d="M2481.9688,278.6406 Q2481.3906,278.9375 2480.75,279.0859 Q2480.1094,279.2344 2479.4063,279.2344 Q2476.9063,279.2344 2475.5859,277.5859 Q2474.2656,275.9375 2474.2656,272.8125 Q2474.2656,269.6875 2475.5859,268.0313 Q2476.9063,266.375 2479.4063,266.375 Q2480.1094,266.375 2480.7578,266.5313 Q2481.4063,266.6875 2481.9688,266.9844 L2481.9688,269.7031 Q2481.3438,269.125 2480.75,268.8516 Q2480.1563,268.5781 2479.5313,268.5781 Q2478.1875,268.5781 2477.5,269.6484 Q2476.8125,270.7188 2476.8125,272.8125 Q2476.8125,274.9063 2477.5,275.9766 Q2478.1875,277.0469 2479.5313,277.0469 Q2480.1563,277.0469 2480.75,276.7734 Q2481.3438,276.5 2481.9688,275.9219 L2481.9688,278.6406 Z "/><text fill="#000000" font-family="sans-serif" font-size="12" lengthAdjust="spacingAndGlyphs" textLength="106" x="2493" y="277.1543">CharacterHealed</text><line style="stroke: #A80036; stroke-width: 1.5;" x1="2465" x2="2601" y1="289" y2="289"/><line style="stroke: #A80036; stroke-width: 1.5;" x1="2465" x2="2601" y1="297" y2="297"/><!--class MinionSummoned--><rect fill="#FEFECE" filter="url(#fpvxitv)" height="48" style="stroke: #A80036; stroke-width: 1.5;" width="142" x="2637" y="257"/><ellipse cx="2652" cy="273" fill="#ADD1B2" rx="11" ry="11" style="stroke: #A80036; stroke-width: 1.0;"/><path d="M2654.9688,278.6406 Q2654.3906,278.9375 2653.75,279.0859 Q2653.1094,279.2344 2652.4063,279.2344 Q2649.9063,279.2344 2648.5859,277.5859 Q2647.2656,275.9375 2647.2656,272.8125 Q2647.2656,269.6875 2648.5859,268.0313 Q2649.9063,266.375 2652.4063,266.375 Q2653.1094,266.375 2653.7578,266.5313 Q2654.4063,266.6875 2654.9688,266.9844 L2654.9688,269.7031 Q2654.3438,269.125 2653.75,268.8516 Q2653.1563,268.5781 2652.5313,268.5781 Q2651.1875,268.5781 2650.5,269.6484 Q2649.8125,270.7188 2649.8125,272.8125 Q2649.8125,274.9063 2650.5,275.9766 Q2651.1875,277.0469 2652.5313,277.0469 Q2653.1563,277.0469 2653.75,276.7734 Q2654.3438,276.5 2654.9688,275.9219 L2654.9688,278.6406 Z "/><text fill="#000000" font-family="sans-serif" font-size="12" lengthAdjust="spacingAndGlyphs" textLength="110" x="2666" y="277.1543">MinionSummoned</text><line style="stroke: #A80036; stroke-width: 1.5;" x1="2638" x2="2778" y1="289" y2="289"/><line style="stroke: #A80036; stroke-width: 1.5;" x1="2638" x2="2778" y1="297" y2="297"/><!--class MinionPlayed--><rect fill="#FEFECE" filter="url(#fpvxitv)" height="48" style="stroke: #A80036; stroke-width: 1.5;" width="113" x="2651.75" y="474"/><ellipse cx="2666.75" cy="490" fill="#ADD1B2" rx="11" ry="11" style="stroke: #A80036; stroke-width: 1.0;"/><path d="M2669.7188,495.6406 Q2669.1406,495.9375 2668.5,496.0859 Q2667.8594,496.2344 2667.1563,496.2344 Q2664.6563,496.2344 2663.3359,494.5859 Q2662.0156,492.9375 2662.0156,489.8125 Q2662.0156,486.6875 2663.3359,485.0313 Q2664.6563,483.375 2667.1563,483.375 Q2667.8594,483.375 2668.5078,483.5313 Q2669.1563,483.6875 2669.7188,483.9844 L2669.7188,486.7031 Q2669.0938,486.125 2668.5,485.8516 Q2667.9063,485.5781 2667.2813,485.5781 Q2665.9375,485.5781 2665.25,486.6484 Q2664.5625,487.7188 2664.5625,489.8125 Q2664.5625,491.9063 2665.25,492.9766 Q2665.9375,494.0469 2667.2813,494.0469 Q2667.9063,494.0469 2668.5,493.7734 Q2669.0938,493.5 2669.7188,492.9219 L2669.7188,495.6406 Z "/><text fill="#000000" font-family="sans-serif" font-size="12" lengthAdjust="spacingAndGlyphs" textLength="81" x="2680.75" y="494.1543">MinionPlayed</text><line style="stroke: #A80036; stroke-width: 1.5;" x1="2652.75" x2="2763.75" y1="506" y2="506"/><line style="stroke: #A80036; stroke-width: 1.5;" x1="2652.75" x2="2763.75" y1="514" y2="514"/><!--class CardPlayed--><rect fill="#FEFECE" filter="url(#fpvxitv)" height="48" style="stroke: #A80036; stroke-width: 1.5;" width="102" x="2814.5" y="257"/><ellipse cx="2829.5" cy="273" fill="#ADD1B2" rx="11" ry="11" style="stroke: #A80036; stroke-width: 1.0;"/><path d="M2832.4688,278.6406 Q2831.8906,278.9375 2831.25,279.0859 Q2830.6094,279.2344 2829.9063,279.2344 Q2827.4063,279.2344 2826.0859,277.5859 Q2824.7656,275.9375 2824.7656,272.8125 Q2824.7656,269.6875 2826.0859,268.0313 Q2827.4063,266.375 2829.9063,266.375 Q2830.6094,266.375 2831.2578,266.5313 Q2831.9063,266.6875 2832.4688,266.9844 L2832.4688,269.7031 Q2831.8438,269.125 2831.25,268.8516 Q2830.6563,268.5781 2830.0313,268.5781 Q2828.6875,268.5781 2828,269.6484 Q2827.3125,270.7188 2827.3125,272.8125 Q2827.3125,274.9063 2828,275.9766 Q2828.6875,277.0469 2830.0313,277.0469 Q2830.6563,277.0469 2831.25,276.7734 Q2831.8438,276.5 2832.4688,275.9219 L2832.4688,278.6406 Z "/><text fill="#000000" font-family="sans-serif" font-size="12" lengthAdjust="spacingAndGlyphs" textLength="70" x="2843.5" y="277.1543">CardPlayed</text><line style="stroke: #A80036; stroke-width: 1.5;" x1="2815.5" x2="2915.5" y1="289" y2="289"/><line style="stroke: #A80036; stroke-width: 1.5;" x1="2815.5" x2="2915.5" y1="297" y2="297"/><!--class Overload--><rect fill="#FEFECE" filter="url(#fpvxitv)" height="48" style="stroke: #A80036; stroke-width: 1.5;" width="87" x="2951.75" y="257"/><ellipse cx="2966.75" cy="273" fill="#ADD1B2" rx="11" ry="11" style="stroke: #A80036; stroke-width: 1.0;"/><path d="M2969.7188,278.6406 Q2969.1406,278.9375 2968.5,279.0859 Q2967.8594,279.2344 2967.1563,279.2344 Q2964.6563,279.2344 2963.3359,277.5859 Q2962.0156,275.9375 2962.0156,272.8125 Q2962.0156,269.6875 2963.3359,268.0313 Q2964.6563,266.375 2967.1563,266.375 Q2967.8594,266.375 2968.5078,266.5313 Q2969.1563,266.6875 2969.7188,266.9844 L2969.7188,269.7031 Q2969.0938,269.125 2968.5,268.8516 Q2967.9063,268.5781 2967.2813,268.5781 Q2965.9375,268.5781 2965.25,269.6484 Q2964.5625,270.7188 2964.5625,272.8125 Q2964.5625,274.9063 2965.25,275.9766 Q2965.9375,277.0469 2967.2813,277.0469 Q2967.9063,277.0469 2968.5,276.7734 Q2969.0938,276.5 2969.7188,275.9219 L2969.7188,278.6406 Z "/><text fill="#000000" font-family="sans-serif" font-size="12" lengthAdjust="spacingAndGlyphs" textLength="55" x="2980.75" y="277.1543">Overload</text><line style="stroke: #A80036; stroke-width: 1.5;" x1="2952.75" x2="3037.75" y1="289" y2="289"/><line style="stroke: #A80036; stroke-width: 1.5;" x1="2952.75" x2="3037.75" y1="297" y2="297"/><!--class WeaponEquipped--><rect fill="#FEFECE" filter="url(#fpvxitv)" height="48" style="stroke: #A80036; stroke-width: 1.5;" width="142" x="3074" y="257"/><ellipse cx="3089" cy="273" fill="#ADD1B2" rx="11" ry="11" style="stroke: #A80036; stroke-width: 1.0;"/><path d="M3091.9688,278.6406 Q3091.3906,278.9375 3090.75,279.0859 Q3090.1094,279.2344 3089.4063,279.2344 Q3086.9063,279.2344 3085.5859,277.5859 Q3084.2656,275.9375 3084.2656,272.8125 Q3084.2656,269.6875 3085.5859,268.0313 Q3086.9063,266.375 3089.4063,266.375 Q3090.1094,266.375 3090.7578,266.5313 Q3091.4063,266.6875 3091.9688,266.9844 L3091.9688,269.7031 Q3091.3438,269.125 3090.75,268.8516 Q3090.1563,268.5781 3089.5313,268.5781 Q3088.1875,268.5781 3087.5,269.6484 Q3086.8125,270.7188 3086.8125,272.8125 Q3086.8125,274.9063 3087.5,275.9766 Q3088.1875,277.0469 3089.5313,277.0469 Q3090.1563,277.0469 3090.75,276.7734 Q3091.3438,276.5 3091.9688,275.9219 L3091.9688,278.6406 Z "/><text fill="#000000" font-family="sans-serif" font-size="12" lengthAdjust="spacingAndGlyphs" textLength="110" x="3103" y="277.1543">WeaponEquipped</text><line style="stroke: #A80036; stroke-width: 1.5;" x1="3075" x2="3215" y1="289" y2="289"/><line style="stroke: #A80036; stroke-width: 1.5;" x1="3075" x2="3215" y1="297" y2="297"/><!--class SpellCast--><rect fill="#FEFECE" filter="url(#fpvxitv)" height="48" style="stroke: #A80036; stroke-width: 1.5;" width="90" x="3251" y="257"/><ellipse cx="3266" cy="273" fill="#ADD1B2" rx="11" ry="11" style="stroke: #A80036; stroke-width: 1.0;"/><path d="M3268.9688,278.6406 Q3268.3906,278.9375 3267.75,279.0859 Q3267.1094,279.2344 3266.4063,279.2344 Q3263.9063,279.2344 3262.5859,277.5859 Q3261.2656,275.9375 3261.2656,272.8125 Q3261.2656,269.6875 3262.5859,268.0313 Q3263.9063,266.375 3266.4063,266.375 Q3267.1094,266.375 3267.7578,266.5313 Q3268.4063,266.6875 3268.9688,266.9844 L3268.9688,269.7031 Q3268.3438,269.125 3267.75,268.8516 Q3267.1563,268.5781 3266.5313,268.5781 Q3265.1875,268.5781 3264.5,269.6484 Q3263.8125,270.7188 3263.8125,272.8125 Q3263.8125,274.9063 3264.5,275.9766 Q3265.1875,277.0469 3266.5313,277.0469 Q3267.1563,277.0469 3267.75,276.7734 Q3268.3438,276.5 3268.9688,275.9219 L3268.9688,278.6406 Z "/><text fill="#000000" font-family="sans-serif" font-size="12" lengthAdjust="spacingAndGlyphs" textLength="58" x="3280" y="277.1543">SpellCast</text><line style="stroke: #A80036; stroke-width: 1.5;" x1="3252" x2="3340" y1="289" y2="289"/><line style="stroke: #A80036; stroke-width: 1.5;" x1="3252" x2="3340" y1="297" y2="297"/><!--class SecretPlayed--><rect fill="#FEFECE" filter="url(#fpvxitv)" height="48" style="stroke: #A80036; stroke-width: 1.5;" width="114" x="3239" y="474"/><ellipse cx="3254" cy="490" fill="#ADD1B2" rx="11" ry="11" style="stroke: #A80036; stroke-width: 1.0;"/><path d="M3256.9688,495.6406 Q3256.3906,495.9375 3255.75,496.0859 Q3255.1094,496.2344 3254.4063,496.2344 Q3251.9063,496.2344 3250.5859,494.5859 Q3249.2656,492.9375 3249.2656,489.8125 Q3249.2656,486.6875 3250.5859,485.0313 Q3251.9063,483.375 3254.4063,483.375 Q3255.1094,483.375 3255.7578,483.5313 Q3256.4063,483.6875 3256.9688,483.9844 L3256.9688,486.7031 Q3256.3438,486.125 3255.75,485.8516 Q3255.1563,485.5781 3254.5313,485.5781 Q3253.1875,485.5781 3252.5,486.6484 Q3251.8125,487.7188 3251.8125,489.8125 Q3251.8125,491.9063 3252.5,492.9766 Q3253.1875,494.0469 3254.5313,494.0469 Q3255.1563,494.0469 3255.75,493.7734 Q3256.3438,493.5 3256.9688,492.9219 L3256.9688,495.6406 Z "/><text fill="#000000" font-family="sans-serif" font-size="12" lengthAdjust="spacingAndGlyphs" textLength="82" x="3268" y="494.1543">SecretPlayed</text><line style="stroke: #A80036; stroke-width: 1.5;" x1="3240" x2="3352" y1="506" y2="506"/><line style="stroke: #A80036; stroke-width: 1.5;" x1="3240" x2="3352" y1="514" y2="514"/><!--class SecretActivated--><rect fill="#FEFECE" filter="url(#fpvxitv)" height="48" style="stroke: #A80036; stroke-width: 1.5;" width="131" x="3376.75" y="257"/><ellipse cx="3391.75" cy="273" fill="#ADD1B2" rx="11" ry="11" style="stroke: #A80036; stroke-width: 1.0;"/><path d="M3394.7188,278.6406 Q3394.1406,278.9375 3393.5,279.0859 Q3392.8594,279.2344 3392.1563,279.2344 Q3389.6563,279.2344 3388.3359,277.5859 Q3387.0156,275.9375 3387.0156,272.8125 Q3387.0156,269.6875 3388.3359,268.0313 Q3389.6563,266.375 3392.1563,266.375 Q3392.8594,266.375 3393.5078,266.5313 Q3394.1563,266.6875 3394.7188,266.9844 L3394.7188,269.7031 Q3394.0938,269.125 3393.5,268.8516 Q3392.9063,268.5781 3392.2813,268.5781 Q3390.9375,268.5781 3390.25,269.6484 Q3389.5625,270.7188 3389.5625,272.8125 Q3389.5625,274.9063 3390.25,275.9766 Q3390.9375,277.0469 3392.2813,277.0469 Q3392.9063,277.0469 3393.5,276.7734 Q3394.0938,276.5 3394.7188,275.9219 L3394.7188,278.6406 Z "/><text fill="#000000" font-family="sans-serif" font-size="12" lengthAdjust="spacingAndGlyphs" textLength="99" x="3405.75" y="277.1543">SecretActivated</text><line style="stroke: #A80036; stroke-width: 1.5;" x1="3377.75" x2="3506.75" y1="289" y2="289"/><line style="stroke: #A80036; stroke-width: 1.5;" x1="3377.75" x2="3506.75" y1="297" y2="297"/><path d="M790.6,107.58 C742.156,132.32 672.432,169.367 614,206 C604.672,211.848 595.059,218.234 585.628,224.726 " fill="none" style="stroke: #A80036; stroke-width: 1.0;"/><polygon fill="#A80036" points="802.438,101.56,795.2771,100.7106,791.7388,106.9939,798.8997,107.8434,802.438,101.56" style="stroke: #A80036; stroke-width: 1.0;"/><text fill="#000000" font-family="sans-serif" font-size="13" lengthAdjust="spacingAndGlyphs" textLength="8" x="594.6616" y="213.2858">2</text><path d="M908.133,118.63 C951.832,149.18 1012.18,191.357 1060.21,224.932 " fill="none" style="stroke: #A80036; stroke-width: 1.0;"/><polygon fill="#A80036" points="897.399,111.13,900.0254,117.8458,907.2347,118.0045,904.6084,111.2887,897.399,111.13" style="stroke: #A80036; stroke-width: 1.0;"/><path d="M1139,350.369 C1139,382.207 1139,419.347 1139,448.282 " fill="none" style="stroke: #A80036; stroke-width: 1.0;"/><polygon fill="#A80036" points="1139,337.089,1135,343.089,1139,349.089,1143,343.089,1139,337.089" style="stroke: #A80036; stroke-width: 1.0;"/><path d="M425.938,349.143 C422.926,351.463 419.94,353.755 417,356 C381.395,383.192 371.138,388.207 336,416 C317.87,430.34 298.295,446.692 281.58,460.931 " fill="none" style="stroke: #A80036; stroke-width: 1.0;"/><polygon fill="#A80036" points="436.244,341.171,429.0508,341.6782,426.7524,348.5132,433.9456,348.006,436.244,341.171" style="stroke: #A80036; stroke-width: 1.0;"/><path d="M465.365,368.066 C449.494,397.998 432.398,430.241 419.272,454.995 " fill="none" style="stroke: #A80036; stroke-width: 1.0;"/><polygon fill="#A80036" points="471.608,356.292,465.2633,359.7192,465.9866,366.8939,472.3313,363.4667,471.608,356.292" style="stroke: #A80036; stroke-width: 1.0;"/><path d="M511,369.658 C511,399.137 511,430.679 511,454.995 " fill="none" style="stroke: #A80036; stroke-width: 1.0;"/><polygon fill="#A80036" points="511,356.292,507,362.292,511,368.292,515,362.292,511,356.292" style="stroke: #A80036; stroke-width: 1.0;"/><path d="M561.892,367.482 C574.027,387.865 586.819,409.352 598.42,428.838 " fill="none" style="stroke: #A80036; stroke-width: 1.0;"/><polygon fill="#A80036" points="555.23,356.292,554.8623,363.4937,561.3686,366.603,561.7363,359.4013,555.23,356.292" style="stroke: #A80036; stroke-width: 1.0;"/><path d="M424.982,351.963 C422.333,353.388 419.67,354.738 417,356 C304.69,409.097 252.402,355.321 144,416 C137.697,419.528 131.586,423.729 125.745,428.333 " fill="none" style="stroke: #A80036; stroke-width: 1.0;"/><polygon fill="#A80036" points="436.484,345.282,429.2866,344.837,426.1076,351.3095,433.305,351.7545,436.484,345.282" style="stroke: #A80036; stroke-width: 1.0;"/><path d="M617.494,579.921 C606.332,621.919 593.519,670.131 586.131,697.93 " fill="none" style="stroke: #A80036; stroke-width: 1.0;"/><polygon fill="#A80036" points="620.897,567.116,615.4897,571.8868,617.8137,578.7131,623.2211,573.9423,620.897,567.116" style="stroke: #A80036; stroke-width: 1.0;"/><path d="M706.051,574.402 C708.351,576.336 710.669,578.207 713,580 C758.694,615.15 782.306,604.85 828,640 C835.549,645.807 842.971,652.435 850.03,659.343 " fill="none" style="stroke: #A80036; stroke-width: 1.0;"/><polygon fill="#A80036" points="696.112,565.575,697.9419,572.5501,705.0842,573.5437,703.2543,566.5686,696.112,565.575" style="stroke: #A80036; stroke-width: 1.0;"/><path d="M690.624,331.341 C681.613,360.258 670.098,397.208 660.231,428.871 " fill="none" style="stroke: #A80036; stroke-width: 1.0;"/><polygon fill="none" points="684.051,328.907,696.684,311.895,697.417,333.072,684.051,328.907" style="stroke: #A80036; stroke-width: 1.0;"/><path d="M725.017,330.674 C734.907,355.987 747.253,387.588 758.52,416.426 " fill="none" style="stroke: #A80036; stroke-width: 1.0;"/><polygon fill="none" points="718.438,333.071,717.68,311.895,731.478,327.976,718.438,333.071" style="stroke: #A80036; stroke-width: 1.0;"/><path d="M847.056,349.205 C838.863,370.428 829.723,394.102 821.202,416.175 " fill="none" style="stroke: #A80036; stroke-width: 1.0;"/><polygon fill="none" points="840.537,346.655,854.27,330.518,853.597,351.697,840.537,346.655" style="stroke: #A80036; stroke-width: 1.0;"/><path d="M917.003,347.246 C942.113,384.478 972.647,429.752 993.524,460.708 " fill="none" style="stroke: #A80036; stroke-width: 1.0;"/><polygon fill="none" points="911.101,351.014,905.722,330.518,922.708,343.186,911.101,351.014" style="stroke: #A80036; stroke-width: 1.0;"/><path d="M877.533,350.616 C883.129,435.333 892.564,578.153 897.935,659.468 " fill="none" style="stroke: #A80036; stroke-width: 1.0;"/><polygon fill="none" points="870.548,351.076,876.214,330.658,884.517,350.153,870.548,351.076" style="stroke: #A80036; stroke-width: 1.0;"/><path d="M1020.79,555.341 C1022.93,598.595 1025.81,656.606 1027.53,691.256 " fill="none" style="stroke: #A80036; stroke-width: 1.0;"/><polygon fill="none" points="1013.79,555.484,1019.79,535.162,1027.77,554.791,1013.79,555.484" style="stroke: #A80036; stroke-width: 1.0;"/><path d="M768.01,592.88 C764.317,608.647 760.513,624.887 756.906,640.285 " fill="none" style="stroke: #A80036; stroke-width: 1.0;"/><polygon fill="#A80036" points="771.08,579.775,765.8172,584.7048,768.3437,591.4589,773.6064,586.529,771.08,579.775" style="stroke: #A80036; stroke-width: 1.0;"/><path d="M712.334,816.407 C707.961,832.323 703.452,848.733 699.178,864.285 " fill="none" style="stroke: #A80036; stroke-width: 1.0;"/><polygon fill="#A80036" points="715.805,803.775,710.3583,808.5008,712.6257,815.3462,718.0724,810.6203,715.805,803.775" style="stroke: #A80036; stroke-width: 1.0;"/><path d="M922.406,797.265 C931.379,829.919 941.665,867.354 949.638,896.371 " fill="none" style="stroke: #A80036; stroke-width: 1.0;"/><polygon fill="#A80036" points="918.911,784.545,916.6443,791.3906,922.0915,796.1158,924.3582,789.2703,918.911,784.545" style="stroke: #A80036; stroke-width: 1.0;"/><path d="M963,1008.882 C963,1035.316 963,1065.2433 963,1087.9572 " fill="none" style="stroke: #A80036; stroke-width: 1.0;"/><polygon fill="#A80036" points="963,995.835,959,1001.835,963,1007.835,967,1001.835,963,995.835" style="stroke: #A80036; stroke-width: 1.0;"/><path d="M2394.55,81.45 C2225.65,92.99 1705.65,133.68 1555,206 C1536.36,214.946 1519.16,229.867 1505.59,243.976 " fill="none" style="stroke: #A80036; stroke-width: 1.0;"/><polygon fill="none" points="2394.25,74.45,2414.68,80.1,2395.19,88.42,2394.25,74.45" style="stroke: #A80036; stroke-width: 1.0;"/><path d="M1446.91,336.386 C1423.16,380.792 1390.77,441.348 1373.33,473.951 " fill="none" style="stroke: #A80036; stroke-width: 1.0;"/><polygon fill="none" points="1440.89,332.806,1456.49,318.472,1453.23,339.409,1440.89,332.806" style="stroke: #A80036; stroke-width: 1.0;"/><path d="M1488.54,338.178 C1498.42,382.409 1511.67,441.785 1518.85,473.951 " fill="none" style="stroke: #A80036; stroke-width: 1.0;"/><polygon fill="none" points="1481.67,339.517,1484.14,318.472,1495.33,336.466,1481.67,339.517" style="stroke: #A80036; stroke-width: 1.0;"/><path d="M2394.18,82.55 C2242.34,96.09 1813.66,139.38 1691,206 C1668.92,217.992 1650.17,239.907 1637.98,256.787 " fill="none" style="stroke: #A80036; stroke-width: 1.0;"/><polygon fill="none" points="2393.97,75.54,2414.5,80.77,2395.19,89.49,2393.97,75.54" style="stroke: #A80036; stroke-width: 1.0;"/><path d="M2394.41,79.47 C2284.57,84.53 2028.61,106.93 1843,206 C1819.77,218.4 1798.78,240.037 1784.77,256.722 " fill="none" style="stroke: #A80036; stroke-width: 1.0;"/><polygon fill="none" points="2394.41,72.47,2414.67,78.66,2394.96,86.46,2394.41,72.47" style="stroke: #A80036; stroke-width: 1.0;"/><path d="M2394.31,82.51 C2302.24,92.33 2111.02,121.97 1975,206 C1954.2,218.847 1936.17,240.21 1924.24,256.689 " fill="none" style="stroke: #A80036; stroke-width: 1.0;"/><polygon fill="none" points="2393.87,75.52,2414.47,80.52,2395.25,89.46,2393.87,75.52" style="stroke: #A80036; stroke-width: 1.0;"/><path d="M2395.47,94.49 C2333.04,115.36 2227,154.82 2145,206 C2121.93,220.401 2098.85,240.979 2082.58,256.782 " fill="none" style="stroke: #A80036; stroke-width: 1.0;"/><polygon fill="none" points="2393.31,87.84,2414.5,88.26,2397.67,101.14,2393.31,87.84" style="stroke: #A80036; stroke-width: 1.0;"/><path d="M2398.02,112.11 C2363.32,136.67 2316.73,171.439 2279,206 C2261.62,221.921 2243.8,241.811 2230.91,256.959 " fill="none" style="stroke: #A80036; stroke-width: 1.0;"/><polygon fill="none" points="2394.09,106.31,2414.49,100.58,2402.11,117.79,2394.09,106.31" style="stroke: #A80036; stroke-width: 1.0;"/><path d="M2430.47,119.66 C2413.01,161.16 2386.83,223.368 2372.77,256.788 " fill="none" style="stroke: #A80036; stroke-width: 1.0;"/><polygon fill="none" points="2424.04,116.89,2438.25,101.17,2436.94,122.32,2424.04,116.89" style="stroke: #A80036; stroke-width: 1.0;"/><path d="M2465.53,119.66 C2482.99,161.16 2509.17,223.368 2523.23,256.788 " fill="none" style="stroke: #A80036; stroke-width: 1.0;"/><polygon fill="none" points="2459.06,122.32,2457.75,101.17,2471.96,116.89,2459.06,122.32" style="stroke: #A80036; stroke-width: 1.0;"/><path d="M2496.55,112.95 C2531.33,138.26 2579.05,173.592 2620,206 C2640.97,222.6 2664.1,242.096 2681.38,256.909 " fill="none" style="stroke: #A80036; stroke-width: 1.0;"/><polygon fill="none" points="2492.21,118.44,2480.13,101.03,2500.43,107.11,2492.21,118.44" style="stroke: #A80036; stroke-width: 1.0;"/><path d="M2708,325.14 C2708,369.941 2708,438.344 2708,473.832 " fill="none" style="stroke: #A80036; stroke-width: 1.0;"/><polygon fill="none" points="2701,325.009,2708,305.009,2715,325.009,2701,325.009" style="stroke: #A80036; stroke-width: 1.0;"/><path d="M2501.33,89.2 C2573.09,106.04 2702.61,142.86 2797,206 C2817.45,219.679 2836,240.738 2848.54,256.898 " fill="none" style="stroke: #A80036; stroke-width: 1.0;"/><polygon fill="none" points="2499.4,95.94,2481.44,84.69,2502.49,82.28,2499.4,95.94" style="stroke: #A80036; stroke-width: 1.0;"/><path d="M2501.34,81.55 C2595.38,89.98 2793.86,117.66 2933,206 C2953.23,218.847 2970.21,240.432 2981.25,256.984 " fill="none" style="stroke: #A80036; stroke-width: 1.0;"/><polygon fill="none" points="2500.7,88.52,2481.34,79.91,2501.84,74.57,2500.7,88.52" style="stroke: #A80036; stroke-width: 1.0;"/><path d="M2501.62,80.65 C2611.08,87.88 2865.93,114.06 3056,206 C3081.87,218.514 3106.61,240.137 3123.41,256.789 " fill="none" style="stroke: #A80036; stroke-width: 1.0;"/><polygon fill="none" points="2500.97,87.63,2481.43,79.43,2501.82,73.65,2500.97,87.63" style="stroke: #A80036; stroke-width: 1.0;"/><path d="M2501.47,81.86 C2657.21,93.83 3107.48,133.99 3234,206 C3254.98,217.938 3271.97,239.86 3282.83,256.756 " fill="none" style="stroke: #A80036; stroke-width: 1.0;"/><polygon fill="none" points="2500.93,88.84,2481.51,80.35,2501.98,74.87,2500.93,88.84" style="stroke: #A80036; stroke-width: 1.0;"/><path d="M3296,325.14 C3296,369.941 3296,438.344 3296,473.832 " fill="none" style="stroke: #A80036; stroke-width: 1.0;"/><polygon fill="none" points="3289,325.009,3296,305.009,3303,325.009,3289,325.009" style="stroke: #A80036; stroke-width: 1.0;"/><path d="M2501.61,81.45 C2672.79,93.08 3204.13,134.25 3359,206 C3384.4,217.767 3407.65,239.945 3423.04,256.965 " fill="none" style="stroke: #A80036; stroke-width: 1.0;"/><polygon fill="none" points="2500.95,88.42,2481.46,80.1,2501.88,74.45,2500.95,88.42" style="stroke: #A80036; stroke-width: 1.0;"/></g></svg>