<?xml version="1.0" encoding="UTF-8" standalone="no"?><svg xmlns="http://www.w3.org/2000/svg" xmlns:xlink="http://www.w3.org/1999/xlink" contentScriptType="application/ecmascript" contentStyleType="text/css" height="830px" preserveAspectRatio="none" style="width:603px;height:830px;" version="1.1" viewBox="0 0 603 830" width="603px" zoomAndPan="magnify"><defs><filter height="300%" id="fy86v9w" width="300%" x="-1" y="-1"><feGaussianBlur result="blurOut" stdDeviation="2.0"/><feColorMatrix in="blurOut" result="blurOut2" type="matrix" values="0 0 0 0 0 0 0 0 0 0 0 0 0 0 0 0 0 0 .4 0"/><feOffset dx="4.0" dy="4.0" in="blurOut2" result="blurOut3"/><feBlend in="SourceGraphic" in2="blurOut3" mode="normal"/></filter></defs><g><!--class Game--><rect fill="#FEFECE" filter="url(#fy86v9w)" height="48" style="stroke: #A80036; stroke-width: 1.5;" width="68" x="258" y="27"/><ellipse cx="273" cy="43" fill="#ADD1B2" rx="11" ry="11" style="stroke: #A80036; stroke-width: 1.0;"/><path d="M275.9688,48.6406 Q275.3906,48.9375 274.75,49.0859 Q274.1094,49.2344 273.4063,49.2344 Q270.9063,49.2344 269.5859,47.5859 Q268.2656,45.9375 268.2656,42.8125 Q268.2656,39.6875 269.5859,38.0313 Q270.9063,36.375 273.4063,36.375 Q274.1094,36.375 274.7578,36.5313 Q275.4063,36.6875 275.9688,36.9844 L275.9688,39.7031 Q275.3438,39.125 274.75,38.8516 Q274.1563,38.5781 273.5313,38.5781 Q272.1875,38.5781 271.5,39.6484 Q270.8125,40.7188 270.8125,42.8125 Q270.8125,44.9063 271.5,45.9766 Q272.1875,47.0469 273.5313,47.0469 Q274.1563,47.0469 274.75,46.7734 Q275.3438,46.5 275.9688,45.9219 L275.9688,48.6406 Z "/><text fill="#000000" font-family="sans-serif" font-size="12" lengthAdjust="spacingAndGlyphs" textLength="36" x="287" y="47.1543">Game</text><line style="stroke: #A80036; stroke-width: 1.5;" x1="259" x2="325" y1="59" y2="59"/><line style="stroke: #A80036; stroke-width: 1.5;" x1="259" x2="325" y1="67" y2="67"/><!--class Player--><rect fill="#FEFECE" filter="url(#fy86v9w)" height="124.8281" style="stroke: #A80036; stroke-width: 1.5;" width="150" x="217.5" y="154.5"/><ellipse cx="269.25" cy="170.5" fill="#ADD1B2" rx="11" ry="11" style="stroke: #A80036; stroke-width: 1.0;"/><path d="M272.2188,176.1406 Q271.6406,176.4375 271,176.5859 Q270.3594,176.7344 269.6563,176.7344 Q267.1563,176.7344 265.8359,175.0859 Q264.5156,173.4375 264.5156,170.3125 Q264.5156,167.1875 265.8359,165.5313 Q267.1563,163.875 269.6563,163.875 Q270.3594,163.875 271.0078,164.0313 Q271.6563,164.1875 272.2188,164.4844 L272.2188,167.2031 Q271.5938,166.625 271,166.3516 Q270.4063,166.0781 269.7813,166.0781 Q268.4375,166.0781 267.75,167.1484 Q267.0625,168.2188 267.0625,170.3125 Q267.0625,172.4063 267.75,173.4766 Q268.4375,174.5469 269.7813,174.5469 Q270.4063,174.5469 271,174.2734 Q271.5938,174 272.2188,173.4219 L272.2188,176.1406 Z "/><text fill="#000000" font-family="sans-serif" font-size="12" lengthAdjust="spacingAndGlyphs" textLength="38" x="289.75" y="174.6543">Player</text><line style="stroke: #A80036; stroke-width: 1.5;" x1="218.5" x2="366.5" y1="186.5" y2="186.5"/><text fill="#000000" font-family="sans-serif" font-size="11" lengthAdjust="spacingAndGlyphs" textLength="56" x="223.5" y="200.7104">battlefield</text><text fill="#000000" font-family="sans-serif" font-size="11" lengthAdjust="spacingAndGlyphs" textLength="26" x="223.5" y="213.5151">deck</text><text fill="#000000" font-family="sans-serif" font-size="11" lengthAdjust="spacingAndGlyphs" textLength="28" x="223.5" y="226.3198">hand</text><text fill="#000000" font-family="sans-serif" font-size="11" lengthAdjust="spacingAndGlyphs" textLength="26" x="223.5" y="239.1245">hero</text><text fill="#000000" font-family="sans-serif" font-size="11" lengthAdjust="spacingAndGlyphs" textLength="62" x="223.5" y="251.9292">mana_pool</text><line style="stroke: #A80036; stroke-width: 1.5;" x1="218.5" x2="366.5" y1="258.5234" y2="258.5234"/><text fill="#000000" font-family="sans-serif" font-size="11" lengthAdjust="spacingAndGlyphs" textLength="138" x="223.5" y="272.7339">[Action] get_all_actions()</text><!--class Battlefield--><rect fill="#FEFECE" filter="url(#fy86v9w)" height="48" style="stroke: #A80036; stroke-width: 1.5;" width="95" x="7.75" y="391"/><ellipse cx="22.75" cy="407" fill="#ADD1B2" rx="11" ry="11" style="stroke: #A80036; stroke-width: 1.0;"/><path d="M25.7188,412.6406 Q25.1406,412.9375 24.5,413.0859 Q23.8594,413.2344 23.1563,413.2344 Q20.6563,413.2344 19.3359,411.5859 Q18.0156,409.9375 18.0156,406.8125 Q18.0156,403.6875 19.3359,402.0313 Q20.6563,400.375 23.1563,400.375 Q23.8594,400.375 24.5078,400.5313 Q25.1563,400.6875 25.7188,400.9844 L25.7188,403.7031 Q25.0938,403.125 24.5,402.8516 Q23.9063,402.5781 23.2813,402.5781 Q21.9375,402.5781 21.25,403.6484 Q20.5625,404.7188 20.5625,406.8125 Q20.5625,408.9063 21.25,409.9766 Q21.9375,411.0469 23.2813,411.0469 Q23.9063,411.0469 24.5,410.7734 Q25.0938,410.5 25.7188,409.9219 L25.7188,412.6406 Z "/><text fill="#000000" font-family="sans-serif" font-size="12" lengthAdjust="spacingAndGlyphs" textLength="63" x="36.75" y="411.1543">Battlefield</text><line style="stroke: #A80036; stroke-width: 1.5;" x1="8.75" x2="101.75" y1="423" y2="423"/><line style="stroke: #A80036; stroke-width: 1.5;" x1="8.75" x2="101.75" y1="431" y2="431"/><!--class Deck--><rect fill="#FEFECE" filter="url(#fy86v9w)" height="86.4141" style="stroke: #A80036; stroke-width: 1.5;" width="86" x="138" y="372"/><ellipse cx="163.35" cy="388" fill="#ADD1B2" rx="11" ry="11" style="stroke: #A80036; stroke-width: 1.0;"/><path d="M166.3188,393.6406 Q165.7406,393.9375 165.1,394.0859 Q164.4594,394.2344 163.7563,394.2344 Q161.2563,394.2344 159.9359,392.5859 Q158.6156,390.9375 158.6156,387.8125 Q158.6156,384.6875 159.9359,383.0313 Q161.2563,381.375 163.7563,381.375 Q164.4594,381.375 165.1078,381.5313 Q165.7563,381.6875 166.3188,381.9844 L166.3188,384.7031 Q165.6938,384.125 165.1,383.8516 Q164.5063,383.5781 163.8813,383.5781 Q162.5375,383.5781 161.85,384.6484 Q161.1625,385.7188 161.1625,387.8125 Q161.1625,389.9063 161.85,390.9766 Q162.5375,392.0469 163.8813,392.0469 Q164.5063,392.0469 165.1,391.7734 Q165.6938,391.5 166.3188,390.9219 L166.3188,393.6406 Z "/><text fill="#000000" font-family="sans-serif" font-size="12" lengthAdjust="spacingAndGlyphs" textLength="31" x="179.65" y="392.1543">Deck</text><line style="stroke: #A80036; stroke-width: 1.5;" x1="139" x2="223" y1="404" y2="404"/><text fill="#000000" font-family="sans-serif" font-size="11" lengthAdjust="spacingAndGlyphs" textLength="32" x="144" y="418.2104">cards</text><line style="stroke: #A80036; stroke-width: 1.5;" x1="139" x2="223" y1="424.8047" y2="424.8047"/><text fill="#000000" font-family="sans-serif" font-size="11" lengthAdjust="spacingAndGlyphs" textLength="50" x="144" y="439.0151">draw(int)</text><text fill="#000000" font-family="sans-serif" font-size="11" lengthAdjust="spacingAndGlyphs" textLength="74" x="144" y="451.8198">reveal_card()</text><!--class Hand--><rect fill="#FEFECE" filter="url(#fy86v9w)" height="73.6094" style="stroke: #A80036; stroke-width: 1.5;" width="65" x="259.75" y="378"/><ellipse cx="274.75" cy="394" fill="#ADD1B2" rx="11" ry="11" style="stroke: #A80036; stroke-width: 1.0;"/><path d="M277.7188,399.6406 Q277.1406,399.9375 276.5,400.0859 Q275.8594,400.2344 275.1563,400.2344 Q272.6563,400.2344 271.3359,398.5859 Q270.0156,396.9375 270.0156,393.8125 Q270.0156,390.6875 271.3359,389.0313 Q272.6563,387.375 275.1563,387.375 Q275.8594,387.375 276.5078,387.5313 Q277.1563,387.6875 277.7188,387.9844 L277.7188,390.7031 Q277.0938,390.125 276.5,389.8516 Q275.9063,389.5781 275.2813,389.5781 Q273.9375,389.5781 273.25,390.6484 Q272.5625,391.7188 272.5625,393.8125 Q272.5625,395.9063 273.25,396.9766 Q273.9375,398.0469 275.2813,398.0469 Q275.9063,398.0469 276.5,397.7734 Q277.0938,397.5 277.7188,396.9219 L277.7188,399.6406 Z "/><text fill="#000000" font-family="sans-serif" font-size="12" lengthAdjust="spacingAndGlyphs" textLength="33" x="288.75" y="398.1543">Hand</text><line style="stroke: #A80036; stroke-width: 1.5;" x1="260.75" x2="323.75" y1="410" y2="410"/><text fill="#000000" font-family="sans-serif" font-size="11" lengthAdjust="spacingAndGlyphs" textLength="32" x="265.75" y="424.2104">cards</text><line style="stroke: #A80036; stroke-width: 1.5;" x1="260.75" x2="323.75" y1="430.8047" y2="430.8047"/><text fill="#000000" font-family="sans-serif" font-size="11" lengthAdjust="spacingAndGlyphs" textLength="50" x="265.75" y="445.0151">discard()</text><!--class Hero--><rect fill="#FEFECE" filter="url(#fy86v9w)" height="112.0234" style="stroke: #A80036; stroke-width: 1.5;" width="79" x="359.75" y="359"/><ellipse cx="382.4" cy="375" fill="#ADD1B2" rx="11" ry="11" style="stroke: #A80036; stroke-width: 1.0;"/><path d="M385.3688,380.6406 Q384.7906,380.9375 384.15,381.0859 Q383.5094,381.2344 382.8063,381.2344 Q380.3063,381.2344 378.9859,379.5859 Q377.6656,377.9375 377.6656,374.8125 Q377.6656,371.6875 378.9859,370.0313 Q380.3063,368.375 382.8063,368.375 Q383.5094,368.375 384.1578,368.5313 Q384.8063,368.6875 385.3688,368.9844 L385.3688,371.7031 Q384.7438,371.125 384.15,370.8516 Q383.5563,370.5781 382.9313,370.5781 Q381.5875,370.5781 380.9,371.6484 Q380.2125,372.7188 380.2125,374.8125 Q380.2125,376.9063 380.9,377.9766 Q381.5875,379.0469 382.9313,379.0469 Q383.5563,379.0469 384.15,378.7734 Q384.7438,378.5 385.3688,377.9219 L385.3688,380.6406 Z "/><text fill="#000000" font-family="sans-serif" font-size="12" lengthAdjust="spacingAndGlyphs" textLength="30" x="398.1" y="379.1543">Hero</text><line style="stroke: #A80036; stroke-width: 1.5;" x1="360.75" x2="437.75" y1="391" y2="391"/><text fill="#000000" font-family="sans-serif" font-size="11" lengthAdjust="spacingAndGlyphs" textLength="17" x="365.75" y="405.2104">life</text><text fill="#000000" font-family="sans-serif" font-size="11" lengthAdjust="spacingAndGlyphs" textLength="35" x="365.75" y="418.0151">power</text><text fill="#000000" font-family="sans-serif" font-size="11" lengthAdjust="spacingAndGlyphs" textLength="35" x="365.75" y="430.8198">armor</text><text fill="#000000" font-family="sans-serif" font-size="11" lengthAdjust="spacingAndGlyphs" textLength="67" x="365.75" y="443.6245">hero_power</text><text fill="#000000" font-family="sans-serif" font-size="11" lengthAdjust="spacingAndGlyphs" textLength="43" x="365.75" y="456.4292">secrets</text><line style="stroke: #A80036; stroke-width: 1.5;" x1="360.75" x2="437.75" y1="463.0234" y2="463.0234"/><!--class ManaPool--><rect fill="#FEFECE" filter="url(#fy86v9w)" height="150.4375" style="stroke: #A80036; stroke-width: 1.5;" width="120" x="474.5" y="340"/><ellipse cx="501.65" cy="356" fill="#ADD1B2" rx="11" ry="11" style="stroke: #A80036; stroke-width: 1.0;"/><path d="M504.6188,361.6406 Q504.0406,361.9375 503.4,362.0859 Q502.7594,362.2344 502.0563,362.2344 Q499.5563,362.2344 498.2359,360.5859 Q496.9156,358.9375 496.9156,355.8125 Q496.9156,352.6875 498.2359,351.0313 Q499.5563,349.375 502.0563,349.375 Q502.7594,349.375 503.4078,349.5313 Q504.0563,349.6875 504.6188,349.9844 L504.6188,352.7031 Q503.9938,352.125 503.4,351.8516 Q502.8063,351.5781 502.1813,351.5781 Q500.8375,351.5781 500.15,352.6484 Q499.4625,353.7188 499.4625,355.8125 Q499.4625,357.9063 500.15,358.9766 Q500.8375,360.0469 502.1813,360.0469 Q502.8063,360.0469 503.4,359.7734 Q503.9938,359.5 504.6188,358.9219 L504.6188,361.6406 Z "/><text fill="#000000" font-family="sans-serif" font-size="12" lengthAdjust="spacingAndGlyphs" textLength="61" x="518.35" y="360.1543">ManaPool</text><line style="stroke: #A80036; stroke-width: 1.5;" x1="475.5" x2="593.5" y1="372" y2="372"/><text fill="#000000" font-family="sans-serif" font-size="11" lengthAdjust="spacingAndGlyphs" textLength="79" x="480.5" y="386.2104">current_mana</text><text fill="#000000" font-family="sans-serif" font-size="11" lengthAdjust="spacingAndGlyphs" textLength="66" x="480.5" y="399.0151">base_mana</text><line style="stroke: #A80036; stroke-width: 1.5;" x1="475.5" x2="593.5" y1="405.6094" y2="405.6094"/><text fill="#000000" font-family="sans-serif" font-size="11" lengthAdjust="spacingAndGlyphs" textLength="50" x="480.5" y="419.8198">refresh()</text><text fill="#000000" font-family="sans-serif" font-size="11" lengthAdjust="spacingAndGlyphs" textLength="100" x="480.5" y="432.6245">bool ramp_up(int)</text><text fill="#000000" font-family="sans-serif" font-size="11" lengthAdjust="spacingAndGlyphs" textLength="108" x="480.5" y="445.4292">add_temporary(int)</text><text fill="#000000" font-family="sans-serif" font-size="11" lengthAdjust="spacingAndGlyphs" textLength="98" x="480.5" y="458.2339">add_overload(int)</text><text fill="#000000" font-family="sans-serif" font-size="11" lengthAdjust="spacingAndGlyphs" textLength="81" x="480.5" y="471.0386">use_mana(int)</text><text fill="#000000" font-family="sans-serif" font-size="11" lengthAdjust="spacingAndGlyphs" textLength="95" x="480.5" y="483.8433">destroy_crystal()</text><!--class HeroPower--><rect fill="#FEFECE" filter="url(#fy86v9w)" height="48" style="stroke: #A80036; stroke-width: 1.5;" width="100" x="247" y="550"/><ellipse cx="262" cy="566" fill="#ADD1B2" rx="11" ry="11" style="stroke: #A80036; stroke-width: 1.0;"/><path d="M264.9688,571.6406 Q264.3906,571.9375 263.75,572.0859 Q263.1094,572.2344 262.4063,572.2344 Q259.9063,572.2344 258.5859,570.5859 Q257.2656,568.9375 257.2656,565.8125 Q257.2656,562.6875 258.5859,561.0313 Q259.9063,559.375 262.4063,559.375 Q263.1094,559.375 263.7578,559.5313 Q264.4063,559.6875 264.9688,559.9844 L264.9688,562.7031 Q264.3438,562.125 263.75,561.8516 Q263.1563,561.5781 262.5313,561.5781 Q261.1875,561.5781 260.5,562.6484 Q259.8125,563.7188 259.8125,565.8125 Q259.8125,567.9063 260.5,568.9766 Q261.1875,570.0469 262.5313,570.0469 Q263.1563,570.0469 263.75,569.7734 Q264.3438,569.5 264.9688,568.9219 L264.9688,571.6406 Z "/><text fill="#000000" font-family="sans-serif" font-size="12" lengthAdjust="spacingAndGlyphs" textLength="68" x="276" y="570.1543">HeroPower</text><line style="stroke: #A80036; stroke-width: 1.5;" x1="248" x2="346" y1="582" y2="582"/><line style="stroke: #A80036; stroke-width: 1.5;" x1="248" x2="346" y1="590" y2="590"/><!--class Weapon--><rect fill="#FEFECE" filter="url(#fy86v9w)" height="112.0234" style="stroke: #A80036; stroke-width: 1.5;" width="111" x="295.75" y="684"/><ellipse cx="323.35" cy="700" fill="#ADD1B2" rx="11" ry="11" style="stroke: #A80036; stroke-width: 1.0;"/><path d="M326.3188,705.6406 Q325.7406,705.9375 325.1,706.0859 Q324.4594,706.2344 323.7563,706.2344 Q321.2563,706.2344 319.9359,704.5859 Q318.6156,702.9375 318.6156,699.8125 Q318.6156,696.6875 319.9359,695.0313 Q321.2563,693.375 323.7563,693.375 Q324.4594,693.375 325.1078,693.5313 Q325.7563,693.6875 326.3188,693.9844 L326.3188,696.7031 Q325.6938,696.125 325.1,695.8516 Q324.5063,695.5781 323.8813,695.5781 Q322.5375,695.5781 321.85,696.6484 Q321.1625,697.7188 321.1625,699.8125 Q321.1625,701.9063 321.85,702.9766 Q322.5375,704.0469 323.8813,704.0469 Q324.5063,704.0469 325.1,703.7734 Q325.6938,703.5 326.3188,702.9219 L326.3188,705.6406 Z "/><text fill="#000000" font-family="sans-serif" font-size="12" lengthAdjust="spacingAndGlyphs" textLength="51" x="340.15" y="704.1543">Weapon</text><line style="stroke: #A80036; stroke-width: 1.5;" x1="296.75" x2="405.75" y1="716" y2="716"/><text fill="#000000" font-family="sans-serif" font-size="11" lengthAdjust="spacingAndGlyphs" textLength="69" x="301.75" y="730.2104">base_power</text><text fill="#000000" font-family="sans-serif" font-size="11" lengthAdjust="spacingAndGlyphs" textLength="82" x="301.75" y="743.0151">current_power</text><text fill="#000000" font-family="sans-serif" font-size="11" lengthAdjust="spacingAndGlyphs" textLength="86" x="301.75" y="755.8198">base_durability</text><text fill="#000000" font-family="sans-serif" font-size="11" lengthAdjust="spacingAndGlyphs" textLength="99" x="301.75" y="768.6245">current_durability</text><line style="stroke: #A80036; stroke-width: 1.5;" x1="296.75" x2="405.75" y1="775.2188" y2="775.2188"/><text fill="#000000" font-family="sans-serif" font-size="11" lengthAdjust="spacingAndGlyphs" textLength="51" x="301.75" y="789.4292">destroy()</text><!--class Card--><rect fill="#FEFECE" filter="url(#fy86v9w)" height="48" style="stroke: #A80036; stroke-width: 1.5;" width="61" x="150.75" y="550"/><ellipse cx="165.75" cy="566" fill="#ADD1B2" rx="11" ry="11" style="stroke: #A80036; stroke-width: 1.0;"/><path d="M168.7188,571.6406 Q168.1406,571.9375 167.5,572.0859 Q166.8594,572.2344 166.1563,572.2344 Q163.6563,572.2344 162.3359,570.5859 Q161.0156,568.9375 161.0156,565.8125 Q161.0156,562.6875 162.3359,561.0313 Q163.6563,559.375 166.1563,559.375 Q166.8594,559.375 167.5078,559.5313 Q168.1563,559.6875 168.7188,559.9844 L168.7188,562.7031 Q168.0938,562.125 167.5,561.8516 Q166.9063,561.5781 166.2813,561.5781 Q164.9375,561.5781 164.25,562.6484 Q163.5625,563.7188 163.5625,565.8125 Q163.5625,567.9063 164.25,568.9766 Q164.9375,570.0469 166.2813,570.0469 Q166.9063,570.0469 167.5,569.7734 Q168.0938,569.5 168.7188,568.9219 L168.7188,571.6406 Z "/><text fill="#000000" font-family="sans-serif" font-size="12" lengthAdjust="spacingAndGlyphs" textLength="29" x="179.75" y="570.1543">Card</text><line style="stroke: #A80036; stroke-width: 1.5;" x1="151.75" x2="210.75" y1="582" y2="582"/><line style="stroke: #A80036; stroke-width: 1.5;" x1="151.75" x2="210.75" y1="590" y2="590"/><!--class Minion--><rect fill="#FEFECE" filter="url(#fy86v9w)" height="163.2422" style="stroke: #A80036; stroke-width: 1.5;" width="134" x="6" y="658.5"/><ellipse cx="48.9" cy="674.5" fill="#ADD1B2" rx="11" ry="11" style="stroke: #A80036; stroke-width: 1.0;"/><path d="M51.8688,680.1406 Q51.2906,680.4375 50.65,680.5859 Q50.0094,680.7344 49.3063,680.7344 Q46.8063,680.7344 45.4859,679.0859 Q44.1656,677.4375 44.1656,674.3125 Q44.1656,671.1875 45.4859,669.5313 Q46.8063,667.875 49.3063,667.875 Q50.0094,667.875 50.6578,668.0313 Q51.3063,668.1875 51.8688,668.4844 L51.8688,671.2031 Q51.2438,670.625 50.65,670.3516 Q50.0563,670.0781 49.4313,670.0781 Q48.0875,670.0781 47.4,671.1484 Q46.7125,672.2188 46.7125,674.3125 Q46.7125,676.4063 47.4,677.4766 Q48.0875,678.5469 49.4313,678.5469 Q50.0563,678.5469 50.65,678.2734 Q51.2438,678 51.8688,677.4219 L51.8688,680.1406 Z "/><text fill="#000000" font-family="sans-serif" font-size="12" lengthAdjust="spacingAndGlyphs" textLength="40" x="69.1" y="678.6543">Minion</text><line style="stroke: #A80036; stroke-width: 1.5;" x1="7" x2="139" y1="690.5" y2="690.5"/><text fill="#000000" font-family="sans-serif" font-size="11" lengthAdjust="spacingAndGlyphs" textLength="69" x="12" y="704.7104">base_power</text><text fill="#000000" font-family="sans-serif" font-size="11" lengthAdjust="spacingAndGlyphs" textLength="82" x="12" y="717.5151">current_power</text><text fill="#000000" font-family="sans-serif" font-size="11" lengthAdjust="spacingAndGlyphs" textLength="69" x="12" y="730.3198">base_health</text><text fill="#000000" font-family="sans-serif" font-size="11" lengthAdjust="spacingAndGlyphs" textLength="82" x="12" y="743.1245">current_health</text><text fill="#000000" font-family="sans-serif" font-size="11" lengthAdjust="spacingAndGlyphs" textLength="80" x="12" y="755.9292">damage_dealt</text><text fill="#000000" font-family="sans-serif" font-size="11" lengthAdjust="spacingAndGlyphs" textLength="24" x="12" y="768.7339">type</text><text fill="#000000" font-family="sans-serif" font-size="11" lengthAdjust="spacingAndGlyphs" textLength="44" x="12" y="781.5386">abilities</text><line style="stroke: #A80036; stroke-width: 1.5;" x1="7" x2="139" y1="788.1328" y2="788.1328"/><text fill="#000000" font-family="sans-serif" font-size="11" lengthAdjust="spacingAndGlyphs" textLength="122" x="12" y="802.3433">attack_minion(Minion)</text><text fill="#000000" font-family="sans-serif" font-size="11" lengthAdjust="spacingAndGlyphs" textLength="101" x="12" y="815.1479">attack_hero(Hero)</text><!--class Spell--><rect fill="#FEFECE" filter="url(#fy86v9w)" height="60.8047" style="stroke: #A80036; stroke-width: 1.5;" width="62" x="175.5" y="709.5"/><ellipse cx="190.5" cy="725.5" fill="#ADD1B2" rx="11" ry="11" style="stroke: #A80036; stroke-width: 1.0;"/><path d="M193.4688,731.1406 Q192.8906,731.4375 192.25,731.5859 Q191.6094,731.7344 190.9063,731.7344 Q188.4063,731.7344 187.0859,730.0859 Q185.7656,728.4375 185.7656,725.3125 Q185.7656,722.1875 187.0859,720.5313 Q188.4063,718.875 190.9063,718.875 Q191.6094,718.875 192.2578,719.0313 Q192.9063,719.1875 193.4688,719.4844 L193.4688,722.2031 Q192.8438,721.625 192.25,721.3516 Q191.6563,721.0781 191.0313,721.0781 Q189.6875,721.0781 189,722.1484 Q188.3125,723.2188 188.3125,725.3125 Q188.3125,727.4063 189,728.4766 Q189.6875,729.5469 191.0313,729.5469 Q191.6563,729.5469 192.25,729.2734 Q192.8438,729 193.4688,728.4219 L193.4688,731.1406 Z "/><text fill="#000000" font-family="sans-serif" font-size="12" lengthAdjust="spacingAndGlyphs" textLength="30" x="204.5" y="729.6543">Spell</text><line style="stroke: #A80036; stroke-width: 1.5;" x1="176.5" x2="236.5" y1="741.5" y2="741.5"/><line style="stroke: #A80036; stroke-width: 1.5;" x1="176.5" x2="236.5" y1="749.5" y2="749.5"/><text fill="#000000" font-family="sans-serif" font-size="11" lengthAdjust="spacingAndGlyphs" textLength="32" x="181.5" y="763.7104">cast()</text><!--class Action--><rect fill="#FEFECE" filter="url(#fy86v9w)" height="86.4141" style="stroke: #A80036; stroke-width: 1.5;" width="96" x="361" y="8"/><ellipse cx="387.25" cy="24" fill="#ADD1B2" rx="11" ry="11" style="stroke: #A80036; stroke-width: 1.0;"/><path d="M390.2188,29.6406 Q389.6406,29.9375 389,30.0859 Q388.3594,30.2344 387.6563,30.2344 Q385.1563,30.2344 383.8359,28.5859 Q382.5156,26.9375 382.5156,23.8125 Q382.5156,20.6875 383.8359,19.0313 Q385.1563,17.375 387.6563,17.375 Q388.3594,17.375 389.0078,17.5313 Q389.6563,17.6875 390.2188,17.9844 L390.2188,20.7031 Q389.5938,20.125 389,19.8516 Q388.4063,19.5781 387.7813,19.5781 Q386.4375,19.5781 385.75,20.6484 Q385.0625,21.7188 385.0625,23.8125 Q385.0625,25.9063 385.75,26.9766 Q386.4375,28.0469 387.7813,28.0469 Q388.4063,28.0469 389,27.7734 Q389.5938,27.5 390.2188,26.9219 L390.2188,29.6406 Z "/><text fill="#000000" font-family="sans-serif" font-size="12" lengthAdjust="spacingAndGlyphs" textLength="39" x="403.75" y="28.1543">Action</text><line style="stroke: #A80036; stroke-width: 1.5;" x1="362" x2="456" y1="40" y2="40"/><text fill="#000000" font-family="sans-serif" font-size="11" lengthAdjust="spacingAndGlyphs" textLength="84" x="367" y="54.2104">requierements</text><text fill="#000000" font-family="sans-serif" font-size="11" lengthAdjust="spacingAndGlyphs" textLength="82" x="367" y="67.0151">consequences</text><line style="stroke: #A80036; stroke-width: 1.5;" x1="362" x2="456" y1="73.6094" y2="73.6094"/><text fill="#000000" font-family="sans-serif" font-size="11" lengthAdjust="spacingAndGlyphs" textLength="84" x="367" y="87.8198">bool possible()</text><path d="M292,88.296 C292,107.712 292,132.149 292,154.436 " fill="none" style="stroke: #A80036; stroke-width: 1.0;"/><polygon fill="#A80036" points="292,75.149,288,81.149,292,87.149,296,81.149,292,75.149" style="stroke: #A80036; stroke-width: 1.0;"/><text fill="#000000" font-family="sans-serif" font-size="13" lengthAdjust="spacingAndGlyphs" textLength="8" x="282.4586" y="143.5225">2</text><path d="M206.371,272.885 C177.808,292.694 146.526,316.094 120,340 C102.725,355.569 85.46,375.481 73.0698,390.727 " fill="none" style="stroke: #A80036; stroke-width: 1.0;"/><polygon fill="#A80036" points="217.169,265.475,209.9585,265.5719,207.2748,272.265,214.4852,272.1681,217.169,265.475" style="stroke: #A80036; stroke-width: 1.0;"/><path d="M250.544,291.202 C235.151,318.381 218.216,348.285 204.912,371.778 " fill="none" style="stroke: #A80036; stroke-width: 1.0;"/><polygon fill="#A80036" points="257.031,279.747,250.5934,282.9962,251.1167,290.1883,257.5543,286.9391,257.031,279.747" style="stroke: #A80036; stroke-width: 1.0;"/><path d="M292,292.907 C292,322.08 292,354.148 292,377.951 " fill="none" style="stroke: #A80036; stroke-width: 1.0;"/><polygon fill="#A80036" points="292,279.747,288,285.747,292,291.747,296,285.747,292,279.747" style="stroke: #A80036; stroke-width: 1.0;"/><path d="M331.995,291.262 C344.22,313.655 357.451,337.892 368.901,358.866 " fill="none" style="stroke: #A80036; stroke-width: 1.0;"/><polygon fill="#A80036" points="325.709,279.747,325.0729,286.93,331.4587,290.2798,332.0948,283.0968,325.709,279.747" style="stroke: #A80036; stroke-width: 1.0;"/><path d="M377.051,278.278 C402.903,297.39 431.058,319.02 456,340 C462,345.047 468.13,350.429 474.187,355.901 " fill="none" style="stroke: #A80036; stroke-width: 1.0;"/><polygon fill="#A80036" points="366.512,270.53,368.9771,277.3067,376.1806,277.6377,373.7155,270.861,366.512,270.53" style="stroke: #A80036; stroke-width: 1.0;"/><path d="M355.93,482.295 C340.252,506.426 323.55,532.134 311.945,549.996 " fill="none" style="stroke: #A80036; stroke-width: 1.0;"/><polygon fill="#A80036" points="363.039,471.352,356.4159,474.204,356.5011,481.4146,363.1243,478.5626,363.039,471.352" style="stroke: #A80036; stroke-width: 1.0;"/><path d="M388.869,484.17 C380.044,543.56 367.408,628.588 359.203,683.799 " fill="none" style="stroke: #A80036; stroke-width: 1.0;"/><polygon fill="#A80036" points="390.803,471.159,385.9649,476.5063,389.0401,483.0288,393.8781,477.6815,390.803,471.159" style="stroke: #A80036; stroke-width: 1.0;"/><path d="M259.851,462.987 C253.633,471.98 247.141,481.3 241,490 C226.644,510.336 210.046,533.253 197.951,549.845 " fill="none" style="stroke: #A80036; stroke-width: 1.0;"/><polygon fill="#A80036" points="267.26,452.246,260.5607,454.9143,260.4471,462.1245,267.1464,459.4562,267.26,452.246" style="stroke: #A80036; stroke-width: 1.0;"/><path d="M82.0076,449.652 C106.293,479.912 141.315,523.551 162.537,549.995 " fill="none" style="stroke: #A80036; stroke-width: 1.0;"/><polygon fill="#A80036" points="73.5917,439.166,74.2271,446.3491,81.102,448.5253,80.4666,441.3422,73.5917,439.166" style="stroke: #A80036; stroke-width: 1.0;"/><path d="M181,471.314 C181,498.251 181,529.189 181,549.797 " fill="none" style="stroke: #A80036; stroke-width: 1.0;"/><polygon fill="#A80036" points="181,458.073,177,464.073,181,470.073,185,464.073,181,458.073" style="stroke: #A80036; stroke-width: 1.0;"/><path d="M154.572,615.132 C145.962,628.206 136.074,643.22 126.221,658.182 " fill="none" style="stroke: #A80036; stroke-width: 1.0;"/><polygon fill="none" points="148.909,611.003,165.755,598.149,160.602,618.703,148.909,611.003" style="stroke: #A80036; stroke-width: 1.0;"/><path d="M187.581,618.171 C191.958,646.886 197.595,683.862 201.473,709.305 " fill="none" style="stroke: #A80036; stroke-width: 1.0;"/><polygon fill="none" points="180.623,618.976,184.529,598.149,194.463,616.866,180.623,618.976" style="stroke: #A80036; stroke-width: 1.0;"/><path d="M219.43,612.073 C241.909,633.759 270.673,661.508 295.571,685.527 " fill="none" style="stroke: #A80036; stroke-width: 1.0;"/><polygon fill="none" points="214.53,617.073,204.996,598.149,224.25,606.997,214.53,617.073" style="stroke: #A80036; stroke-width: 1.0;"/></g></svg>